<svg id="Ñëîé_1" data-name="Ñëîé 1" xmlns="http://www.w3.org/2000/svg" viewBox="0 0 1798.35 1496.17"><defs><style>.cls-1{fill:#e5f0f8;}.cls-2{fill:#0775ef;}.cls-13,.cls-21,.cls-3{fill:#fff;}.cls-10,.cls-11,.cls-12,.cls-15,.cls-29,.cls-30,.cls-31,.cls-32,.cls-34,.cls-36,.cls-4,.cls-41,.cls-42,.cls-43,.cls-45,.cls-46,.cls-47,.cls-9{fill:none;}.cls-36,.cls-4,.cls-41,.cls-46,.cls-9{stroke:#fff;}.cls-10,.cls-11,.cls-12,.cls-15,.cls-31,.cls-4,.cls-41,.cls-42,.cls-45,.cls-46,.cls-9{stroke-linecap:round;}.cls-13,.cls-14,.cls-20,.cls-21,.cls-29,.cls-30,.cls-32,.cls-34,.cls-36,.cls-4,.cls-43,.cls-47{stroke-miterlimit:10;}.cls-4{stroke-width:6.68px;}.cls-5{fill:#df941e;}.cls-14,.cls-6{fill:#bbdbf3;}.cls-7{fill:#93c3e6;}.cls-8{fill:#6adb6a;}.cls-10,.cls-11,.cls-12,.cls-15,.cls-31,.cls-41,.cls-42,.cls-45,.cls-46,.cls-9{stroke-linejoin:round;}.cls-9{stroke-width:6.05px;}.cls-10,.cls-11,.cls-12,.cls-13,.cls-14,.cls-15{stroke:#bbdbf3;}.cls-10,.cls-11,.cls-12,.cls-15{stroke-width:2.15px;}.cls-11{stroke-dasharray:13.05 13.05;}.cls-12{stroke-dasharray:14.29 14.29;}.cls-13{stroke-width:3.41px;}.cls-14{stroke-width:2.98px;}.cls-15{stroke-dasharray:12.9;}.cls-16{fill:#586773;}.cls-17{fill:#93acbf;}.cls-18{fill:#f9e181;}.cls-19{fill:#f2bb16;}.cls-20{fill:#40a87b;stroke:#40a87b;}.cls-20,.cls-21{stroke-width:7.99px;}.cls-21{stroke:#6adb6a;}.cls-22{fill:#de2828;}.cls-23{fill:#2ec6fc;}.cls-24{fill:#f74242;}.cls-25{fill:#322a28;}.cls-26{fill:#088cff;}.cls-27{fill:#a06753;}.cls-28{fill:#824c3a;}.cls-29{stroke:#d1ddff;stroke-width:2.39px;}.cls-30{stroke:#e5f0f8;stroke-width:1.2px;}.cls-31{stroke:#724638;stroke-width:0.6px;}.cls-32,.cls-34{stroke:#2c3447;}.cls-32{stroke-width:0.89px;}.cls-33{fill:#a14c53;}.cls-34{stroke-width:1.23px;}.cls-35{fill:#89a5c7;}.cls-36{stroke-width:1.01px;}.cls-37{fill:#a5bbd6;}.cls-38{fill:#fdae97;}.cls-39{fill:#088cfc;}.cls-40{fill:#ea9d85;}.cls-41{stroke-width:1.39px;}.cls-42{stroke:#ea9d85;stroke-width:1.36px;}.cls-43,.cls-47{stroke:#332b27;}.cls-43{stroke-width:0.87px;}.cls-44{fill:#fff1f0;}.cls-45{stroke:#fff1f0;stroke-width:1.07px;}.cls-46{stroke-width:0.71px;}.cls-47{stroke-width:1.22px;}</style></defs><path class="cls-1" d="M464.45,2002.33S-139.6,437,968.9,543c474.77,45.38,386.14,320.7,595.83,578.3,135.92,167,397.33,30.38,495.29,176.29s-17.16,561.94-57.54,704.77Z" transform="translate(-300.17 -537.83)"/><rect class="cls-2" x="32.25" y="1458.4" width="1766.1" height="37.77" rx="17.38"/><path class="cls-3" d="M731.22,959.5H362.53c-5.41,0-9.93-5-10.22-11.51-1.12-24.39-7.45-57.66,27.3-73.06,34.95-15.5,70.27,2,70.27,2s5.37-82.74,86.79-82.59c75,.13,108.54,76.29,108.54,76.29s65.43-24.73,95.59,72.23C743.3,950.9,738.4,959.5,731.22,959.5Z" transform="translate(-300.17 -537.83)"/><path class="cls-3" d="M663,950.3h17.31a8.43,8.43,0,0,1,8.43,8.43v31.07a0,0,0,0,1,0,0H654.56a0,0,0,0,1,0,0V958.73A8.43,8.43,0,0,1,663,950.3Z" transform="translate(1043.14 1402.28) rotate(180)"/><path class="cls-3" d="M97,412.47h34.18a0,0,0,0,1,0,0v31.07a8.43,8.43,0,0,1-8.43,8.43H105.42A8.43,8.43,0,0,1,97,443.55V412.47A0,0,0,0,1,97,412.47Z"/><path class="cls-3" d="M534.78,950.3H552.1a8.43,8.43,0,0,1,8.43,8.43v31.07a0,0,0,0,1,0,0H526.35a0,0,0,0,1,0,0V958.73A8.43,8.43,0,0,1,534.78,950.3Z" transform="translate(786.71 1402.28) rotate(180)"/><polyline class="cls-4" points="114.07 432.23 114.07 648.7 114.07 896.54 233.47 896.54"/><line class="cls-4" x1="243.27" y1="432.23" x2="243.27" y2="712.08"/><polyline class="cls-4" points="371.48 432.23 371.48 464.69 709.1 464.69 709.1 391.71 876.72 391.71"/><path class="cls-5" d="M1891.73,1172.27a563.27,563.27,0,0,0-11.64-100.91c-.38-2.07-.81-4.07-1.25-6.07C1825.31,821.46,1613.47,637,1356.62,625.14c-8.76-.44-17.59-.62-26.48-.62a560.85,560.85,0,0,0-218.79,44.19c-13.9,5.89-27.48,12.33-40.75,19.22A562.63,562.63,0,0,0,782.82,1059.4c-.75,3.32-1.5,6.64-2.19,10a566.41,566.41,0,0,0-12.14,116.87,560.48,560.48,0,0,0,42.25,214.16c84.14,203.95,285,347.56,519.4,347.56a559.37,559.37,0,0,0,177.91-28.8q21.51-7.12,42.13-16c150.62-64.17,267.5-192.25,316.51-350.13a562.52,562.52,0,0,0,25.17-166.83C1891.86,1181.54,1891.86,1176.91,1891.73,1172.27Z" transform="translate(-300.17 -537.83)"/><path class="cls-6" d="M1891.86,1186.23a559.32,559.32,0,0,1-125.58,354.07l-.06.07a563.37,563.37,0,0,1-216,162.82q-20.65,8.83-42.13,16a559.37,559.37,0,0,1-177.91,28.8c-234.38,0-435.26-143.61-519.4-347.56a560.48,560.48,0,0,1-42.25-214.16,566.41,566.41,0,0,1,12.14-116.87c.69-3.32,1.44-6.64,2.19-10A562.63,562.63,0,0,1,1070.6,687.93c4.13-2.13,8.32-4.26,12.52-6.26q13.89-6.85,28.23-13a560.85,560.85,0,0,1,218.79-44.19c8.89,0,17.72.18,26.48.62,256.85,11.83,468.69,196.32,522.22,440.15.44,2,.87,4,1.25,6.07a563.27,563.27,0,0,1,11.64,100.91C1891.86,1176.91,1891.86,1181.54,1891.86,1186.23Z" transform="translate(-300.17 -537.83)"/><path class="cls-1" d="M1891.86,1186.23a559.32,559.32,0,0,1-125.58,354.07l-.06.07q-13.34,6.57-27,12.39c-13.77,5.89-27.79,11.21-42.19,16a562.62,562.62,0,0,1-496.49-70.23,551.6,551.6,0,0,1-46.45-35.87A562.94,562.94,0,0,1,999.73,1250q-6.19-15-11.52-30.42a566.18,566.18,0,0,1-18.59-300.61c.69-3.32,1.44-6.64,2.13-10a561.92,561.92,0,0,1,67.67-165.58c2.32-3.75,4.7-7.51,7.08-11.26v-.07a557.68,557.68,0,0,1,36.62-50.39q13.89-6.85,28.23-13a560.85,560.85,0,0,1,218.79-44.19c8.89,0,17.72.18,26.48.62,256.85,11.83,468.69,196.32,522.22,440.15.44,2,.87,4,1.25,6.07a563.27,563.27,0,0,1,11.64,100.91C1891.86,1176.91,1891.86,1181.54,1891.86,1186.23Z" transform="translate(-300.17 -537.83)"/><path class="cls-6" d="M1891.89,1186.22a561.46,561.46,0,0,1-25.21,166.87c-4.84-7.46-5.23-19-5.85-23.28-.87-6.12-9.62,9.62-10.94,4.66s4.81-28.73-.44-30.91-7.86,3.49-12.67,5.67-4.39,12.25-9.64,13.14-11.8,13.12-15.3,19.24-12.25,9.2-17.5,11.38-9.62,11.38-11.38,17-7.88,7.89-14,6.57.45-29.74.45-35.42-.87-9.64-5.68-14.88-4.83-24.51-6.12-28-3.94-6.57-6.15-10.06,3.94-8.31,3.52-14,.42-10.52,6.55-14.88,3.07-7,3.94-11.38,7.88-6.12,10.06-8.33-.44-5.23,5.68-7,13.58-16.61,12.69-21,3.5-9.61,4.81-9.61,3.52-2.63,3.08-5.26-1.32-5.26,2.18-8.75,8.3-10.93,7-15.32.44-9.62,1.76-15.74,2.18-6.57,5.25-5.68,7.44,7.86,10.89,7.86,4-2.6,3.54-9.62-3.94-11.8-3.49-16.49,7-6.24,8.3-8.45,1.76-8.3,4.39-7.44,6.12,0,11.38.45-2.63,21,0,25.36,18.79,13.14,18.79,13.14,1.31-22.76-.87-31.93-3.49-35-2.18-30.2,3.49,14.88,8.75,23.63,4.81,18.82,6.57,29.3c1.56,9.45,6.67,22.76,7.68,25.36C1891.84,1176.93,1891.89,1181.56,1891.89,1186.22Z" transform="translate(-300.17 -537.83)"/><path class="cls-7" d="M1113.48,1654.86c-11.64,2.32-45-8.76-63-22.78s-89.27-68.24-99.78-73.5-19.85-42-30.3-59.47-28.61-37.37-37.94-45.51-23.91-26.79-28-36.18-16.9-21.6-22.16-23.92-4.7-24.47-14-26.79c-5.57-1.38-7.14,17.84-7.58,33.68a560.48,560.48,0,0,1-42.25-214.16,566.41,566.41,0,0,1,12.14-116.87c5.45-6.2,12.65-10.08,30-13s3.06,10.45,0,18.09-2.76,13.4,0,22.16,22.28,11.64,32.8,14.59-1.75-12.27,0-23.35,21.6-3.51,26.79-1.19,19.28,0,25.11-.57,14-5.25,25.66-7,7,6.45,3.51,15.78-4.07,12.21-3,22.16,19.85,36.75,23.36,39.63,7,7,9.32,16.33,4.7,22.79,9.33,22.16,5.82,9.39,17.53,19.29a45,45,0,0,0,7.13,5.07q5.35,15.39,11.52,30.42a560.77,560.77,0,0,0,60.79,110.18c-1.5,2.44-2.94,4.63-4.2,6.51-7,10.39-8.2,38.56-4.06,44.95s8.13,11.64,15.15,22.72,10.51,6.45,17.46,10.52,15.78,22.16,23.35,31.55,8.76,19.84-1.75,24.47-9.89,23.92-12.21,32.06,12.77,8.76,16.34,16.9,11.64,8.2,12.77,12.89-11.08,15.15-7.57,20.41,15.14,16.9,12.27,24.48,1.75,20.41,4.06,30.92S1125.12,1652.48,1113.48,1654.86Z" transform="translate(-300.17 -537.83)"/><path class="cls-6" d="M1096.58,1254.16c-2.32,14.52-1.76,23.28-1.19,34.36s-8.14,20.41-13.4,33.24c-4.32,10.58-14.15,27.11-21.47,38.38A560.77,560.77,0,0,1,999.73,1250q-6.19-15-11.52-30.42c6.77,3.69,10.58,2.06,15,2.5,5.82.56,12.21,14,17.46,22.72s14.59,12.27,18.72,14.59,8.7-5.19,17.47-10.45,12.83-7,21.6-11.08,9.32-11.71,16.9-12.27S1098.89,1239.57,1096.58,1254.16Z" transform="translate(-300.17 -537.83)"/><path class="cls-7" d="M1046.5,732.13c-2.38,3.75-4.76,7.51-7.08,11.26A561.92,561.92,0,0,0,971.75,909c-.69,3.32-1.44,6.64-2.13,10a568.84,568.84,0,0,0,1.51,240.76c-2.51-3-5-6.07-7.58-9.39-9.33-12.27-22.16-26.23-27-39.06s1.31-18.72,3-32.68-1.69-15.78-2.81-19.84,7.32-35.81,5.82-36.75c-7-4.2-19.72,7.26-30.24,13s-21.84,2.63-25.35-4.39,6.57-11.76,11-27.54-6.57-10-11.76-9.64-9.21,5.7-17.53,14.46,1.31,23.6-2.63,32.8-7.45-5.25-12.27-14,.44-9.58,2.19-24-1.32-24-7.89-37.62-10.89,25.79-21.41,28.42-11.83,15.34-18,25.85-4.76,19.66-7.39,28.42c-2.38,7.77-9.33,13.15-18.47,11.77a558.71,558.71,0,0,1,67.67-165.58c17.22-2,24.42-13.58,29.11-13.89s9-.88,21-4.7,3.2-7,4.64-10.77,14.9-5.25,21-7.57,2.32-7.57,3.76-18.65,5.25-4.7,12.58-8.77,9-7.26,7.57-9.33-10.2,3.51-12.27.88,3.2-12.83-.25-11.08-7.32,8.76-7.32,15.46-6.39,9.89-11.64,19.85S911,852.51,903.52,854s-10-1.19-14.34-1.5,4.13-9.33,11.39-18.09,11.4-16.28,20.16-23S928.56,800,936.44,793s18.35-16.65,32.37-23.67,17.53,1.76,17.53,1.76,6.38,4.69,21-11.65,7-7,20.41-13.39C1039.67,740.39,1041,737.89,1046.5,732.13Z" transform="translate(-300.17 -537.83)"/><path class="cls-6" d="M1626.81,1096.65c.56,4.07-11.71,6.95-25.11-3.25s-20.4-9-30.3-15.4-14.58-10-23.35-25.11-6.44-20.4-10.51-31.49-13.4-5.25-17.53,1.76-18,4.63-27.42,1.75-9.26-12.83-26.23-21.6-22.16-2.31-35.56-1.19-26.29,14.59-36.18,19.85-7,9.33-7.57,18.09-15.78,31.49-23.92,39.06-1.19,9.33,5.82,22.16,6.45,8.2,4.7,16.91-5.82,15.77-6.45,28-5.26,19.85-11.64,19.85-16.34-12.9-22.16-25.11-17-15.77-35-25.66-12.27-13.4-21-29.18-14.59-21-16.9-14-11.08,0-26.86-2.88-16.9-11.7-30.3-19.84-22.16,4.07-30.36,6.57-19.84,10.33-29.3,14.4-23.79,1.19-33.05,2.94-24.54.56-36.18,0-15.78-9.89-27.42-17.34-14.59,1-19.28,5.7,2.31,7.57,11.51,16.34,13,6.38,22.35,15.15,18,15.14,25.67,6.38,12.21-7,22.16-6.38,23.35-3.51,29.74-3,5.82,19.85-.57,30.93,2.88,26.79,0,29.73-12.83,4.14-19.28,9.33-9.89,12.27-21.6,16.34-9.32,11.71-11.64,19.84-17.53,14.59-30.92,22.17-16.34,21.59-25.11,22.16-5.82-14-9.89-28-21.6-11.64-29.73-26.48c-6-10.83-12.52-18.46-19.28-26.54a568.84,568.84,0,0,1-1.51-240.76c.69-3.32,1.44-6.64,2.13-10a561.92,561.92,0,0,1,67.67-165.58c2.32-3.75,4.7-7.51,7.08-11.26v-.07c.68-.75,1.44-1.5,2.25-2.31,7.57-7.58,15.15-7,26.79-7s18.09-2.32,28.61-7.58-2.31-15.77,4.63-26.23,26.86-6.45,33.25-11.7,11.08-9.33,24-13.4,19.22-7.58,26.79-14c3-2.51,7.58-6.89,12.15-11.27a561.56,561.56,0,0,1,125.2-14c8.89,0,17.72.18,26.48.62,6.39,3.63,12.15,6.39,15.28,6.57,9.89.57,15.15,2.38,30.92,7.64s15.15,8.7,21,14,8.14-.56,23.35-4.69,11.08,9.39,30.93,11.7,36.12,21,48.39,28.61,15.15,8.14,9.89,17.47-3.45,11.08.62,21,13.4,6.39,18.1,7.83,14,7.88,21.53,12,12.83,15.22,8.76,20.41-17.46.63-18.65-9.33-12.83-8.7-22.72-19.15-10.52,2.81-14.59,8.64-7.58,3.5-15.21-5.2-7,1.19-11.65,8.7,2.32,12.27,9.33,18.09,8.77-1.12,12.27-3.44,10.46-8.76,8.76,0,2.32,16.34,8.71,12.77,8.2,4.7,15.77,13.46,15.71,10.46,29.17,15.71,8.14,11.71,12.84,24.54,8.13,25.67,7.57,36.75,1.13,16.9-7.57,28.55-10,12.83-25.11,18.65-5.82.63-12.27,3.51-5.19,9.32-6.94,21.59,4.63,9.89,14,17.53,19.28,5.82,32.11,9.89,12.21,8.14,16.9,17.53,5.82,13.4.57,21-2.32,15.78-1.76,27.42-8.76,9.89-11.08-5.82-8.14-4.7-16.9-4.7-12.83-7-23.35-9.89-8.7,1.76-15.15,10.52,5.26,19.22,8.76,28.55,14.59,8.2,29.74,12.83,12.27,2.94,21,13.46S1626.18,1092.52,1626.81,1096.65Z" transform="translate(-300.17 -537.83)"/><path class="cls-7" d="M1202.12,1550.13c-6.7,2.07-19.84-4.94-30.92-10.77s-3.2-8.45-3.76-20.72-7.32-12.83-13.71-18.65-10.83-12.52-14.9-18.66c-3.44-5.19,3.76-11.83,15.21-18.71a551.6,551.6,0,0,0,46.45,35.87,39.13,39.13,0,0,1,1.63,7.63c1.19,10.46,8.45,19,10,29.74S1208.82,1548.13,1202.12,1550.13Z" transform="translate(-300.17 -537.83)"/><path class="cls-6" d="M1200.49,1498.49a551.6,551.6,0,0,1-46.45-35.87c2.13-1.26,4.32-2.51,6.7-3.76,15.15-8.14-5.32-28.8,6.7-28,8.45.56,9.33,4.94,13.71,11.33s9,10,12.52,17,1.44,10.21,1.75,19.78C1195.67,1486.09,1198.55,1491.79,1200.49,1498.49Z" transform="translate(-300.17 -537.83)"/><path class="cls-6" d="M1536.22,1104.07c-3.43-9.82,19.25-11.82,28-6.13s14.44,12.69,26.69,14.88,13.56,1.75,21,0,17.5-10.5,18.81-1.75-3.06,14.43,4.37,17.06,16.19,2.62,22.31,5.68,4.82,2.63,6.57,9.63,6.12,19.25-.88,19.25-13.12-4.38-27.56-6.13-17.5-1.31-27.56-10.93.44-7-17.5-12.69-21-12.25-31.06-18.37S1539.29,1112.82,1536.22,1104.07Z" transform="translate(-300.17 -537.83)"/><path class="cls-6" d="M1674,1162.69c3.93,8.35,12.69-3.5,20.56-5.69s6.13-.44,15.31-2.19,11.38-12.25,18.81-11.37-4.81-8.75-12.68-6.13-8.75,2.63-19.69,6.57S1670.53,1155.25,1674,1162.69Z" transform="translate(-300.17 -537.83)"/><path class="cls-6" d="M1880.11,1071.35c-3.27-1.54-6.12-3.08-6.59-3.9-1.17-2-5.26-12.24-9-15.14s-2,7.86-.27,14.28,1.16,9-2.06,7.28-5-1.16-8.45,2.06-6.13,2.61-4.37-11.08-3.64-13.21-12.54-16.93c-5.21-2.16-11.38-1.46-17.5-2.33s-10.81-5.26-14.31-11.08,3.8-11.68,9-12.25,2.93,9,13.12,14.58,1.76-6.42,2.62-16.91,9.65-2.63,19.56-1.46,9.32,11.38,12.52,18.07,5.85,10.51,7.89,17.21c.86,2.87,4.85,7.36,9.09,11.52C1879.27,1067.31,1879.72,1069.31,1880.11,1071.35Z" transform="translate(-300.17 -537.83)"/><path class="cls-6" d="M1667.9,1077.53c-3.25,8.59,3.5,15.31,7.59,19.39a67,67,0,0,1,10.21,13.71c2,3.79,5.24,6.12,10.49,2s5.25-8.75,14.88-8.17,14.87,10.21,18.08.3,1.7-11.09,1.87-19,6.3-18.08,3.09-23.33-10-7-3.09-12.25.76-7-4.2-8.17-11.67-2-12.25-9.33,1.75-11.08,4.08-15.75,5.54-11.38-4.66-8.75-18.67,2.62-17.5,11.37.29,14.29-6.42,19.25-.88,16.73-4.37,22.36S1670,1072.15,1667.9,1077.53Z" transform="translate(-300.17 -537.83)"/><path class="cls-6" d="M1565.53,701.15c-10.09,1.55,12.69,6.56,18.82,16.19s19.68,8.75,14,21-8.75,10.5-6.13,17.93-5.25,14,1.31,14,14.88-2.19,21.44,6.13,6.56.43.87-10.5-6.56-14.44-3.5-19.69a17.47,17.47,0,0,0-2.18-20.56c-6.13-7-10.28-4.81-17.39-12.25S1571.22,700.28,1565.53,701.15Z" transform="translate(-300.17 -537.83)"/><path class="cls-6" d="M1381.58,1130.75c-6.1,2.76-2.19,10.72.21,16s-2,8.53,3.07,13.56,11.81,12.25,15.75,8.75,16.18-8.09,9.84-15.31-9.19-7.44-14-12.69S1388.36,1127.69,1381.58,1130.75Z" transform="translate(-300.17 -537.83)"/><path class="cls-6" d="M1744.61,1050.84c1.07,12.79,7,13.12,5,21.87s-2.41,15.17,1.42,15.17,5.58-21.87,9.37-14,7.87,12,8.75,7.29-11.38-13.9-6.71-19.93,14.58-21.48,2.92-13.9-16,17.21-17.79,8.75-4.09-12.25,5.83-15.17,18.37-2.33,19.54-9,2-20.41-7-10.79-9.63,8.17-16.92,13.13-14.29,5.25-11.37,9.33S1744.12,1045,1744.61,1050.84Z" transform="translate(-300.17 -537.83)"/><path class="cls-6" d="M1664.84,898.45c-8.35.42-7.44,6.13-2.19,12.25s6.13,13.13,13.13,19.69,15.31,9.19,17.06,14.87,8.53-.43,8.2-6.56,8.42-3.5,12.8.88,9.19,4.07,11.37,7.94,10.5-2.26,1.75-7.94-10.06-8.32-19.25-11.82-8.1-3.06-12.58,0-7.54,4.1-13.23-5-3.66-17.36-8.39-21.73S1673.59,898,1664.84,898.45Z" transform="translate(-300.17 -537.83)"/><rect class="cls-8" x="38.19" y="704.4" width="976.57" height="714.41"/><rect class="cls-3" x="47.26" y="713.45" width="958.45" height="696.29"/><rect class="cls-8" x="47.25" y="713.46" width="958.45" height="65.62"/><line class="cls-9" x1="945.11" y1="765.15" x2="982.86" y2="727.39"/><line class="cls-9" x1="982.86" y1="765.15" x2="945.11" y2="727.39"/><polyline class="cls-10" points="526.47 958.85 526.47 965.3 520.02 965.3"/><line class="cls-11" x1="506.97" y1="965.3" x2="96.05" y2="965.3"/><polyline class="cls-10" points="89.53 965.3 83.08 965.3 83.08 958.85"/><line class="cls-12" x1="83.08" y1="944.57" x2="83.08" y2="923.14"/><polyline class="cls-10" points="83.08 916 83.08 909.54 89.53 909.54"/><line class="cls-11" x1="102.58" y1="909.54" x2="513.5" y2="909.54"/><polyline class="cls-10" points="520.02 909.54 526.47 909.54 526.47 916"/><line class="cls-12" x1="526.47" y1="930.28" x2="526.47" y2="951.71"/><rect class="cls-1" x="83.08" y="811.94" width="104.74" height="15.78"/><rect class="cls-1" x="222.8" y="811.94" width="104.74" height="15.78"/><rect class="cls-1" x="362.52" y="811.94" width="104.74" height="15.78"/><rect class="cls-1" x="502.24" y="811.94" width="104.74" height="15.78"/><rect class="cls-1" x="641.97" y="811.94" width="104.74" height="15.78"/><rect class="cls-6" x="872.62" y="799.61" width="97.19" height="40.42"/><rect class="cls-1" x="83.09" y="1301.54" width="178.07" height="108.2"/><rect class="cls-3" x="89.86" y="1308.68" width="164.53" height="101.06"/><polygon class="cls-1" points="136.36 1379.8 160.56 1409.74 111.69 1409.74 136.36 1379.8"/><polygon class="cls-1" points="243.29 1409.74 175.26 1409.74 215.15 1342.44 243.29 1409.74"/><circle class="cls-1" cx="172.11" cy="1339.38" r="8.33"/><rect class="cls-1" x="791.74" y="1301.54" width="178.07" height="108.2"/><rect class="cls-3" x="798.51" y="1308.68" width="164.53" height="101.06"/><polygon class="cls-1" points="845.02 1379.8 869.21 1409.74 820.34 1409.74 845.02 1379.8"/><polygon class="cls-1" points="951.95 1409.74 883.92 1409.74 923.8 1342.44 951.95 1409.74"/><circle class="cls-1" cx="880.77" cy="1339.38" r="8.33"/><rect class="cls-1" x="555.53" y="1301.54" width="178.05" height="108.2"/><rect class="cls-3" x="562.28" y="1308.68" width="164.55" height="101.06"/><polygon class="cls-1" points="608.81 1379.8 633 1409.74 584.13 1409.74 608.81 1379.8"/><polygon class="cls-1" points="715.73 1409.74 647.71 1409.74 687.59 1342.44 715.73 1409.74"/><circle class="cls-1" cx="644.55" cy="1339.38" r="8.33"/><rect class="cls-1" x="319.3" y="1301.54" width="178.07" height="108.2"/><rect class="cls-3" x="326.07" y="1308.68" width="164.53" height="101.06"/><polygon class="cls-1" points="372.57 1379.8 396.77 1409.74 347.9 1409.74 372.57 1379.8"/><polygon class="cls-1" points="479.5 1409.74 411.48 1409.74 451.36 1342.44 479.5 1409.74"/><circle class="cls-1" cx="408.33" cy="1339.38" r="8.33"/><rect class="cls-1" x="83.08" y="1016.1" width="209.53" height="25.92"/><rect class="cls-1" x="310.53" y="1016.1" width="96.45" height="25.92"/><rect class="cls-1" x="83.08" y="1061.6" width="135.54" height="25.92"/><rect class="cls-1" x="236.55" y="1061.6" width="221.13" height="25.92"/><rect class="cls-1" x="83.08" y="1113.87" width="36.32" height="11.45"/><rect class="cls-1" x="124.49" y="1113.87" width="143.46" height="11.45"/><rect class="cls-1" x="273.65" y="1113.87" width="124.25" height="11.45"/><rect class="cls-1" x="403" y="1113.87" width="129.05" height="11.45"/><rect class="cls-1" x="83.08" y="1135.72" width="75.33" height="11.45"/><rect class="cls-1" x="164.26" y="1135.72" width="134.61" height="11.45"/><rect class="cls-1" x="304.71" y="1135.72" width="227.34" height="11.45"/><rect class="cls-1" x="83.08" y="1157.58" width="115.54" height="11.45"/><rect class="cls-1" x="203.42" y="1157.58" width="163.57" height="11.45"/><rect class="cls-1" x="373.29" y="1157.58" width="158.76" height="11.45"/><rect class="cls-1" x="83.08" y="1179.43" width="141.56" height="11.45"/><rect class="cls-1" x="817.96" y="1270.87" width="125.64" height="11.48"/><rect class="cls-1" x="581.73" y="1270.87" width="125.64" height="11.48"/><rect class="cls-1" x="345.51" y="1270.87" width="125.64" height="11.48"/><rect class="cls-1" x="109.29" y="1270.87" width="125.64" height="11.48"/><rect class="cls-13" x="105.84" y="876.35" width="443.39" height="55.76"/><rect class="cls-14" x="438.06" y="876.35" width="111.18" height="55.76"/><path class="cls-3" d="M774.59,1453.39a18.42,18.42,0,0,0,23.4-4.69l29.72,16.6,2.87-5.15-29.71-16.6a18.43,18.43,0,1,0-26.28,9.84Zm16.06-28.72a14.42,14.42,0,1,1-19.63,5.55A14.46,14.46,0,0,1,790.65,1424.67Z" transform="translate(-300.17 -537.83)"/><rect class="cls-15" x="561.21" y="909.54" width="408.6" height="325.57"/><rect class="cls-6" x="980.86" y="1354.56" width="325.57" height="408.6" transform="translate(2402.33 -122.61) rotate(90)"/><rect class="cls-3" x="654.7" y="874.66" width="377.54" height="292.74"/><polygon class="cls-6" points="654.7 1167.4 761.44 1037.84 836.42 1130.67 942.21 952.14 1032.24 1167.4 654.7 1167.4"/><circle class="cls-6" cx="843.47" cy="945.1" r="19.11"/><polygon class="cls-16" points="1602.13 127.22 1625.96 127.22 1604.33 159.68 1595.36 147.71 1602.13 127.22"/><polygon class="cls-16" points="1175.3 83.42 1199.13 83.42 1186.52 122.77 1164.24 101.99 1175.3 83.42"/><polygon class="cls-16" points="1498.62 31.45 1522.45 31.45 1521.37 47.37 1502.75 43.8 1498.62 31.45"/><polygon class="cls-16" points="1244.4 513.74 1268.23 513.74 1253.08 491.1 1227.14 497.42 1244.4 513.74"/><polygon class="cls-16" points="1130.94 206.86 1107.11 206.86 1099.23 283.13 1123.06 283.13 1130.94 206.86"/><polygon class="cls-16" points="1296.28 10.64 1320.12 10.64 1274.03 43.97 1296.28 10.64"/><polygon class="cls-16" points="1446.85 534.47 1470.68 534.47 1474.81 516.07 1454.86 517.9 1446.85 534.47"/><polygon class="cls-16" points="1591.56 461.69 1567.72 461.69 1565.25 444.81 1583.42 442.83 1591.56 461.69"/><polygon class="cls-16" points="1382.03 544.89 1405.87 544.89 1378.27 541.14 1372.95 544.53 1382.03 544.89"/><polygon class="cls-16" points="1635.94 338.36 1659.77 338.36 1641.58 321.62 1624.28 329.99 1635.94 338.36"/><path class="cls-16" d="M1944,799.8c-23.07,3.37-44-7.94-46.74-25.61-2.89-17.56,13.36-34.93,36.43-39.09a265.68,265.68,0,0,0-31.35-70.05c-18.47,14.51-42.15,15.22-53.48,1.23-11.25-13.79-5.83-36.95,12-52.08a266,266,0,0,0-62.08-44.92c-8.79,21.76-29.1,34.12-45.74,27.78s-23.59-29.21-15.62-51.14a281.73,281.73,0,0,0-76.27-7.88c3.28,23.27-8.05,44.12-25.73,47s-34.89-13.59-39-36.55a263.73,263.73,0,0,0-69.93,31.36c14.39,18.36,15,42.14,1,53.48-13.76,11.22-37,5.82-52-12a265.78,265.78,0,0,0-44.83,62.08c21.64,8.68,34.09,29.09,27.67,45.74s-29,23.59-51,15.62A277.4,277.4,0,0,0,1399.4,821c23.07-3.37,43.91,8,46.86,25.61,2.77,17.65-13.48,35-36.55,39.09a266.66,266.66,0,0,0,31.35,70.05c18.47-14.51,42.17-15,53.48-1.23s5.83,36.95-12,52.06a265.49,265.49,0,0,0,62,45c8.79-21.85,29-34.21,45.74-27.76s23.59,29.1,15.62,51a277.79,277.79,0,0,0,76.27,7.88c-3.28-23.3,8.17-44,25.62-46.86,17.67-2.88,35.12,13.48,39.2,36.44a264.73,264.73,0,0,0,69.93-31.36c-14.48-18.36-15-42.14-1.23-53.39,13.91-11.31,37.07-5.91,52.17,12a269.81,269.81,0,0,0,44.95-62c-21.76-8.8-34.12-29.1-27.9-45.75,6.45-16.76,29.21-23.58,51.17-15.62A270.76,270.76,0,0,0,1944,799.8Zm-84.21,10.59a181.75,181.75,0,0,1-1,19.08c-.17,1.6-.34,3.2-.54,4.77a194.07,194.07,0,0,1-5.8,28.18q-2,6.95-4.54,13.71c-.54,1.51-1.14,3-1.74,4.51s-1.17,2.91-1.8,4.34a.76.76,0,0,1-.14.34c-.57,1.31-1.14,2.6-1.74,3.88a4.48,4.48,0,0,1-.32.66c-.57,1.23-1.14,2.46-1.74,3.66l-.4.82c-.54,1.06-1,2.12-1.62,3.15-.92,1.79-1.89,3.56-2.86,5.31l-1.54,2.65c-1.51,2.54-3.06,5.06-4.66,7.51-.54.86-1.11,1.72-1.71,2.57-3.37,5-7,9.85-10.82,14.48-.94,1.17-1.91,2.31-2.91,3.45s-2,2.26-3,3.37c-.86.95-1.72,1.86-2.57,2.77s-1.69,1.77-2.54,2.63c-1.06,1.09-2.12,2.14-3.2,3.17a1.68,1.68,0,0,1-.32.29c-1.17,1.14-2.37,2.28-3.59,3.39a187.09,187.09,0,0,1-52.83,34.16c-1.14.48-2.28.94-3.4,1.42s-2.28.92-3.42,1.34l-3.43,1.29c-2.29.86-4.63,1.63-7,2.37-1.14.37-2.31.71-3.45,1.06s-2.34.68-3.52,1-2.34.65-3.51.94c-2.82.74-5.68,1.4-8.56,2-1.43.31-2.89.57-4.32.83-1.65.31-3.28.57-4.94.82s-3.11.49-4.68.66a185.75,185.75,0,0,1-38.43,1c-1.6-.11-3.17-.25-4.74-.43a179.58,179.58,0,0,1-24.19-4.08c-1.34-.31-2.65-.63-4-1-1.57-.4-3.11-.83-4.65-1.29-1.72-.48-3.43-1-5.11-1.54-1.35-.43-2.69-.88-4-1.34q-6.12-2.06-12-4.6c-1.4-.57-2.8-1.2-4.2-1.82-1.11-.49-2.23-1-3.31-1.55-1.86-.85-3.66-1.77-5.46-2.68-1.17-.6-2.34-1.2-3.48-1.86-1.6-.85-3.17-1.74-4.71-2.62-1.06-.6-2.11-1.23-3.17-1.89l-4-2.48c-3.74-2.4-7.42-4.94-11-7.65a.3.3,0,0,0-.14-.09q-3.55-2.65-7-5.51c-1.17-.92-2.31-1.91-3.46-2.91s-2.25-2-3.37-3-2.19-2-3.25-3c0,0-.09-.06-.12-.11-1-.89-1.91-1.83-2.85-2.77-.29-.29-.57-.6-.89-.89-.82-.83-1.65-1.68-2.45-2.54l-2.66-2.83a187.49,187.49,0,0,1-32.69-49.51c-.52-1.11-1-2.26-1.49-3.37s-1-2.26-1.42-3.4-.92-2.25-1.35-3.4a183.47,183.47,0,0,1-7.62-24.9c-.37-1.51-.69-3-1-4.56s-.6-3.06-.89-4.6-.51-3-.74-4.46c-.28-1.79-.51-3.59-.74-5.39-.17-1.34-.34-2.72-.46-4.09-.17-1.62-.31-3.25-.45-4.88s-.23-3.2-.29-4.8c-.09-1.39-.14-2.77-.17-4.16,0-.32,0-.66,0-1,0-1.45-.06-2.91-.06-4.36v-.18q0-4.75.26-9.42a188.06,188.06,0,0,1,40.29-107.19q4.66-5.84,9.8-11.4a187.26,187.26,0,0,1,134.09-60c2.72,0,5.45,0,8.17.06,1,0,1.91,0,2.86.08,2.52.09,5,.25,7.55.45l2.17.17q4.18.39,8.35,1l1.31.17c3,.43,6.09,1,9.12,1.53l.54.1q4.86,1,9.67,2.17h0a187.26,187.26,0,0,1,28.64,9.73c1.46.63,2.94,1.29,4.4,2s2.71,1.29,4.08,1.94a7.09,7.09,0,0,0,.69.32c1.31.68,2.62,1.34,3.91,2l0,.06c1.43.74,2.86,1.51,4.26,2.31,1.23.69,2.43,1.37,3.63,2.09q2.4,1.41,4.76,2.91c.92.57,1.83,1.17,2.75,1.8,4.39,2.88,8.68,6,12.82,9.22,1.17.92,2.37,1.86,3.51,2.83s2.14,1.77,3.17,2.68l.4.35c1,.91,2.11,1.82,3.14,2.77l.2.2c.88.8,1.77,1.6,2.63,2.45s1.8,1.69,2.68,2.57c1.06,1,2.11,2.11,3.17,3.2l.34.34q1.71,1.75,3.37,3.6a186.64,186.64,0,0,1,38.18,63.08c1.26,3.45,2.4,6.94,3.43,10.42.34,1.17.68,2.31,1,3.48s.62,2.35.94,3.52a181.27,181.27,0,0,1,4.11,21.3c.11.83.23,1.68.31,2.51.75,6,1.17,12.11,1.32,18.28,0,1.42,0,2.88,0,4.31Z" transform="translate(-300.17 -537.83)"/><polygon class="cls-16" points="1140.89 417.88 1164.72 417.88 1166.23 388.46 1138.96 397.27 1140.89 417.88"/><path class="cls-17" d="M1967.8,799.8c-23.08,3.37-44-7.94-46.75-25.61s13.37-34.93,36.44-39.09a266,266,0,0,0-31.36-70.05c-18.47,14.51-42.14,15.22-53.48,1.23-11.25-13.79-5.82-36.95,12-52.08a265.74,265.74,0,0,0-62.08-44.92c-8.79,21.76-29.09,34.12-45.74,27.78s-23.59-29.21-15.62-51.14A281.73,281.73,0,0,0,1685,538c3.28,23.27-8,44.12-25.73,47s-34.89-13.59-39-36.55a263.59,263.59,0,0,0-69.93,31.36c14.39,18.36,15,42.14,1,53.48-13.76,11.22-36.94,5.82-52-12a265.78,265.78,0,0,0-44.83,62.08c21.64,8.68,34.09,29.09,27.67,45.74s-29,23.59-51,15.62a277.79,277.79,0,0,0-7.88,76.27c23.07-3.37,43.92,8,46.86,25.61,2.77,17.65-13.48,35-36.55,39.09a267,267,0,0,0,31.35,70.05c18.48-14.51,42.18-15,53.48-1.23s5.83,36.95-12,52.06a265.49,265.49,0,0,0,62.05,45c8.8-21.85,29-34.21,45.75-27.76s23.58,29.1,15.62,51a277.75,277.75,0,0,0,76.27,7.88c-3.29-23.3,8.16-44,25.61-46.86,17.67-2.88,35.12,13.48,39.2,36.44a264.73,264.73,0,0,0,69.93-31.36c-14.47-18.36-15-42.14-1.22-53.39s37.06-5.91,52.17,12a269.47,269.47,0,0,0,44.94-62c-21.76-8.8-34.12-29.1-27.9-45.75,6.46-16.76,29.21-23.58,51.17-15.62A270.77,270.77,0,0,0,1967.8,799.8Zm-84.21,10.59a184.5,184.5,0,0,1-1,19.08c-.17,1.6-.35,3.2-.55,4.77a194,194,0,0,1-5.79,28.18q-2,6.95-4.54,13.71c-.55,1.51-1.14,3-1.74,4.51s-1.17,2.91-1.8,4.34a.89.89,0,0,1-.15.34c-.57,1.31-1.14,2.6-1.74,3.88a4.45,4.45,0,0,1-.31.66c-.57,1.23-1.14,2.46-1.74,3.66-.15.28-.29.57-.4.82-.55,1.06-1.06,2.12-1.63,3.15-.91,1.79-1.89,3.56-2.86,5.31-.51.88-1,1.77-1.54,2.65-1.51,2.54-3,5.06-4.65,7.51-.55.86-1.12,1.72-1.72,2.57-3.37,5-7,9.85-10.82,14.48-.94,1.17-1.91,2.31-2.91,3.45s-2,2.26-3,3.37c-.86.95-1.71,1.86-2.57,2.77s-1.68,1.77-2.54,2.63c-1.06,1.09-2.11,2.14-3.2,3.17a1.65,1.65,0,0,1-.31.29c-1.17,1.14-2.37,2.28-3.6,3.39a187.09,187.09,0,0,1-52.83,34.16c-1.14.48-2.28.94-3.39,1.42s-2.29.92-3.43,1.34l-3.43,1.29c-2.28.86-4.62,1.63-7,2.37-1.15.37-2.32.71-3.46,1.06s-2.34.68-3.51,1-2.34.65-3.51.94q-4.24,1.11-8.57,2c-1.43.31-2.89.57-4.31.83-1.66.31-3.29.57-4.94.82s-3.11.49-4.69.66a185.75,185.75,0,0,1-38.43,1c-1.6-.11-3.17-.25-4.74-.43a180.12,180.12,0,0,1-24.19-4.08c-1.34-.31-2.65-.63-4-1-1.58-.4-3.12-.83-4.66-1.29-1.71-.48-3.43-1-5.11-1.54-1.34-.43-2.68-.88-4-1.34q-6.12-2.06-12-4.6c-1.4-.57-2.8-1.2-4.2-1.82-1.11-.49-2.22-1-3.31-1.55-1.85-.85-3.65-1.77-5.45-2.68-1.17-.6-2.34-1.2-3.49-1.86-1.59-.85-3.17-1.74-4.71-2.62-1-.6-2.11-1.23-3.17-1.89l-4-2.48c-3.74-2.4-7.43-4.94-11-7.65a.23.23,0,0,0-.14-.09c-2.37-1.77-4.68-3.6-7-5.51-1.17-.92-2.31-1.91-3.45-2.91s-2.26-2-3.37-3-2.2-2-3.26-3a.57.57,0,0,1-.11-.11c-1-.89-1.91-1.83-2.86-2.77-.28-.29-.57-.6-.88-.89-.83-.83-1.66-1.68-2.46-2.54s-1.77-1.88-2.65-2.83a187.28,187.28,0,0,1-32.7-49.51c-.51-1.11-1-2.26-1.48-3.37s-1-2.26-1.43-3.4-.91-2.25-1.34-3.4a182.1,182.1,0,0,1-7.63-24.9c-.37-1.51-.68-3-1-4.56s-.6-3.06-.88-4.6-.52-3-.74-4.46c-.29-1.79-.52-3.59-.75-5.39-.17-1.34-.34-2.72-.45-4.09-.17-1.62-.32-3.25-.46-4.88s-.23-3.2-.29-4.8c-.08-1.39-.14-2.77-.17-4.16,0-.32,0-.66,0-1,0-1.45,0-2.91,0-4.36v-.18q0-4.75.25-9.42A188.13,188.13,0,0,1,1548,693.78c3.12-3.89,6.37-7.68,9.8-11.4a187.26,187.26,0,0,1,134.09-60c2.73,0,5.45,0,8.18.06,1,0,1.9,0,2.85.08,2.52.09,5,.25,7.55.45l2.18.17c2.78.26,5.57.58,8.34,1l1.31.17c3,.43,6.09,1,9.12,1.53l.54.1c3.24.64,6.47,1.36,9.67,2.17h0a186.89,186.89,0,0,1,28.64,9.73c1.46.63,2.94,1.29,4.4,2s2.71,1.29,4.08,1.94a7.09,7.09,0,0,0,.69.32c1.31.68,2.63,1.34,3.91,2l.06.06q2.14,1.11,4.25,2.31c1.23.69,2.43,1.37,3.63,2.09,1.6.94,3.2,1.91,4.77,2.91.91.57,1.83,1.17,2.74,1.8,4.4,2.88,8.68,6,12.82,9.22,1.17.92,2.37,1.86,3.51,2.83s2.14,1.77,3.17,2.68l.4.35c1.06.91,2.11,1.82,3.14,2.77l.2.2c.89.8,1.77,1.6,2.63,2.45s1.8,1.69,2.68,2.57c1.06,1,2.12,2.11,3.17,3.2l.35.34c1.14,1.17,2.25,2.37,3.37,3.6a186.77,186.77,0,0,1,38.17,63.08c1.26,3.45,2.4,6.94,3.43,10.42.34,1.17.68,2.31,1,3.48l.94,3.52a181.27,181.27,0,0,1,4.11,21.3c.12.83.23,1.68.32,2.51.74,6,1.17,12.11,1.31,18.28,0,1.42.06,2.88.06,4.31Z" transform="translate(-300.17 -537.83)"/><circle class="cls-18" cx="1695.53" cy="810.4" r="195.81" transform="translate(-376.6 898.46) rotate(-45)"/><path class="cls-19" d="M1701.94,990c99.06-1.73,178.24-83.72,176.52-182.77S1794.75,629,1695.69,630.76s-178.23,83.7-176.51,182.76S1602.89,991.76,1701.94,990Z" transform="translate(-300.17 -537.83)"/><path class="cls-1" d="M1841.12,901.06a171.06,171.06,0,0,1-142.57,80.88c-94.68,1.65-172.94-74-174.61-168.55A171.93,171.93,0,0,1,1692.58,638.8c94.56-1.58,172.91,74.07,174.49,168.62A170.07,170.07,0,0,1,1841.12,901.06Z" transform="translate(-300.17 -537.83)"/><path class="cls-3" d="M1694,638.82c-.49,0-1,0-1.45,0a170.43,170.43,0,0,0-119.85,51.89,171,171,0,0,0-26,93.64c1.67,94.58,80,170.22,174.61,168.55a170.74,170.74,0,0,0,119.73-51.82A170,170,0,0,0,1867,810.4c0-1,.08-2,.06-3C1865.5,713.35,1787.93,638,1694,638.82Z" transform="translate(-300.17 -537.83)"/><path class="cls-6" d="M1684.85,660.08a8.07,8.07,0,1,0,7.93-8.21A8.07,8.07,0,0,0,1684.85,660.08Z" transform="translate(-300.17 -537.83)"/><path class="cls-6" d="M1794.27,696.55a8.07,8.07,0,1,0,11.41-.2A8.07,8.07,0,0,0,1794.27,696.55Z" transform="translate(-300.17 -537.83)"/><circle class="cls-6" cx="1845.99" cy="807.78" r="8.06" transform="translate(-317.62 1036.61) rotate(-46)"/><circle class="cls-6" cx="1803.78" cy="914.94" r="8.06" transform="matrix(1, -0.02, 0.02, 1, -315.81, -506.32)"/><path class="cls-6" d="M1706.21,960.72a8.06,8.06,0,1,0-7.92,8.2A8.05,8.05,0,0,0,1706.21,960.72Z" transform="translate(-300.17 -537.83)"/><path class="cls-6" d="M1596.79,924.24a8.06,8.06,0,1,0-11.4.2A8,8,0,0,0,1596.79,924.24Z" transform="translate(-300.17 -537.83)"/><path class="cls-6" d="M1545.21,821.08a8.07,8.07,0,1,0-8.2-7.93A8.07,8.07,0,0,0,1545.21,821.08Z" transform="translate(-300.17 -537.83)"/><circle class="cls-6" cx="1587.29" cy="705.86" r="8.06" transform="translate(-305.1 -526.64) rotate(-0.4)"/><circle class="cls-18" cx="1698.82" cy="810.4" r="14.4" transform="translate(-375.63 900.78) rotate(-45)"/><polygon class="cls-18" points="1402.31 168.18 1396.57 152.87 1391.37 168.37 1394.92 168.31 1396.73 272.61 1400.58 272.54 1398.76 168.24 1402.31 168.18"/><polygon class="cls-18" points="1398.65 270.65 1398.65 274.49 1463.68 274.5 1463.68 277.94 1479.08 272.47 1463.68 267 1463.68 270.65 1398.65 270.65"/><rect class="cls-20" x="13.67" y="88.78" width="987.33" height="137.67"/><rect class="cls-21" x="49.07" y="88.78" width="987.33" height="137.67"/><path class="cls-6" d="M447.22,687.32H433.59V668.49a18.19,18.19,0,0,0-36.37,0v18.83H383.59A1.63,1.63,0,0,0,382,689v50a1.63,1.63,0,0,0,1.63,1.63h63.63a1.64,1.64,0,0,0,1.64-1.63V689A1.64,1.64,0,0,0,447.22,687.32ZM403,668.49a12.42,12.42,0,1,1,24.84,0v18.83H403Z" transform="translate(-300.17 -537.83)"/><path class="cls-6" d="M478.83,659.59h7.51v29.62h.16a11,11,0,0,1,4.93-5.13,16.23,16.23,0,0,1,8.09-2A17.2,17.2,0,0,1,505,683a12.46,12.46,0,0,1,4.6,2.71,13.11,13.11,0,0,1,3.12,4.72,18,18,0,0,1,1.17,6.8v25.45h-7.51V699.3a13.22,13.22,0,0,0-.75-4.71,8.66,8.66,0,0,0-2-3.17,7.38,7.38,0,0,0-2.88-1.75,10.37,10.37,0,0,0-3.38-.55,12.29,12.29,0,0,0-4.34.75,9.21,9.21,0,0,0-3.5,2.38,11.33,11.33,0,0,0-2.34,4.13,19,19,0,0,0-.83,5.93v20.36h-7.51Z" transform="translate(-300.17 -537.83)"/><path class="cls-6" d="M546.41,689.63H535.65v17.93c0,1.12,0,2.22.08,3.3a8.75,8.75,0,0,0,.63,2.92,4.77,4.77,0,0,0,1.67,2.09,5.67,5.67,0,0,0,3.29.79,15.64,15.64,0,0,0,2.76-.25,7.94,7.94,0,0,0,2.58-.92v6.84a9.89,9.89,0,0,1-3.46,1,26.88,26.88,0,0,1-3.3.29,15.15,15.15,0,0,1-6.71-1.21,8.31,8.31,0,0,1-3.51-3.13,10.14,10.14,0,0,1-1.33-4.3q-.21-2.37-.21-4.8v-20.6h-8.68v-6.51h8.68V672h7.51v11.1h10.76Z" transform="translate(-300.17 -537.83)"/><path class="cls-6" d="M577.29,689.63H566.52v17.93q0,1.68.09,3.3a8.51,8.51,0,0,0,.62,2.92,4.84,4.84,0,0,0,1.67,2.09,5.7,5.7,0,0,0,3.3.79,15.53,15.53,0,0,0,2.75-.25,7.91,7.91,0,0,0,2.59-.92v6.84a10,10,0,0,1-3.47,1,26.75,26.75,0,0,1-3.29.29,15.23,15.23,0,0,1-6.72-1.21,8.28,8.28,0,0,1-3.5-3.13,10.15,10.15,0,0,1-1.34-4.3q-.21-2.37-.21-4.8v-20.6h-8.67v-6.51H559V672h7.51v11.1h10.77Z" transform="translate(-300.17 -537.83)"/><path class="cls-6" d="M587,683.12h7.51v5.67h.16a14.31,14.31,0,0,1,6-4.92,18.39,18.39,0,0,1,7.8-1.75,20.86,20.86,0,0,1,8.3,1.58,18.24,18.24,0,0,1,6.34,4.42,19.71,19.71,0,0,1,4.05,6.64,22.94,22.94,0,0,1,1.42,8.13,23.2,23.2,0,0,1-1.42,8.22,19.2,19.2,0,0,1-4.05,6.59,18.27,18.27,0,0,1-6.34,4.38,20.86,20.86,0,0,1-8.3,1.59,18.27,18.27,0,0,1-8-1.8,13.69,13.69,0,0,1-5.76-4.88h-.16V746.2H587Zm20.52,6a13.47,13.47,0,0,0-5.42,1A12.08,12.08,0,0,0,598,693a12.61,12.61,0,0,0-2.58,4.34,17.2,17.2,0,0,0,0,11.1,12.52,12.52,0,0,0,2.58,4.34,12.1,12.1,0,0,0,4.09,2.84,14.67,14.67,0,0,0,10.85,0,12.1,12.1,0,0,0,4.09-2.84,12.52,12.52,0,0,0,2.58-4.34,17.2,17.2,0,0,0,0-11.1A12.61,12.61,0,0,0,617,693a12.08,12.08,0,0,0-4.09-2.83A13.52,13.52,0,0,0,607.49,689.12Z" transform="translate(-300.17 -537.83)"/><path class="cls-6" d="M643.87,693.63a5.57,5.57,0,0,1-5.51-5.51,5.51,5.51,0,0,1,11,0,5.57,5.57,0,0,1-5.51,5.51Zm-5.51,24a5.57,5.57,0,1,1,1.63,3.88A5.31,5.31,0,0,1,638.36,717.66Z" transform="translate(-300.17 -537.83)"/><path class="cls-6" d="M661.31,726.34l-5.84-2.17,26.7-64.25,5.76,2.17Z" transform="translate(-300.17 -537.83)"/><path class="cls-6" d="M693.77,726.34l-5.84-2.17,26.7-64.25,5.76,2.17Z" transform="translate(-300.17 -537.83)"/><path class="cls-19" d="M1598,1807.36a40.59,40.59,0,0,0,35,11.49c20.08-3,34.47-21.12,34.47-41.43V1752h88.66v81.3h25.26c21.53,0,40.33,16.16,41.92,37.63a40.86,40.86,0,0,1-40.6,43.79h-26.58v81.3H1508.89a11.49,11.49,0,0,1-11.48-11.49V1752h88.67v26.59A40.63,40.63,0,0,0,1598,1807.36Z" transform="translate(-300.17 -537.83)"/><path class="cls-8" d="M1958.87,1845.32a40.61,40.61,0,0,0,28.74,69.34h27.32v69.9a11.48,11.48,0,0,1-11.45,11.5h-247.3v-81.31h26.57a40.86,40.86,0,0,0,40.6-43.8c-1.6-21.44-20.39-37.64-41.92-37.64h-25.25v-81.26h79.33v-25.39c0-20.35,14.36-38.39,34.48-41.45a40.81,40.81,0,0,1,46.91,40.23v26.61h98v81.35h-27.32A40.73,40.73,0,0,0,1958.87,1845.32Z" transform="translate(-300.17 -537.83)"/><path class="cls-22" d="M1508.89,1508.06h247.27v81.26h25.26c21.53,0,40.33,16.16,41.92,37.63a40.86,40.86,0,0,1-40.6,43.79h-26.58V1752H1667.5v25.39c0,20.31-14.39,38.38-34.47,41.43a40.82,40.82,0,0,1-47-40.23V1752h-88.67V1519.54A11.48,11.48,0,0,1,1508.89,1508.06Z" transform="translate(-300.17 -537.83)"/><path class="cls-23" d="M2040.93,1589.74h-26.67v-69.58a11.44,11.44,0,0,0-11.45-11.45H1756.16v81h25.2c21.47,0,40.21,16.12,41.8,37.53a40.74,40.74,0,0,1-40.49,43.67h-26.51V1752h79.13v-25.31c0-20.26,14.35-38.29,34.38-41.33a40.73,40.73,0,0,1,46.83,40.13V1752h97.76v-81h26.67a40.74,40.74,0,0,0,40.63-40.63h0A40.74,40.74,0,0,0,2040.93,1589.74Z" transform="translate(-300.17 -537.83)"/><path class="cls-3" d="M1846.37,1974.22v-27.57a32.09,32.09,0,0,1,2.05-12.39,21.13,21.13,0,0,1,5.2-7.7,17.71,17.71,0,0,1,7.08-3.92,26.47,26.47,0,0,1,15.17,0,17.81,17.81,0,0,1,7.09,3.92,21.25,21.25,0,0,1,5.2,7.7,32.3,32.3,0,0,1,2,12.39v16.94h34.54v10.63Zm34.54-10.63v-13.94a38.27,38.27,0,0,0-.5-6.15,16.28,16.28,0,0,0-1.83-5.42,9.88,9.88,0,0,0-3.82-3.82,15.28,15.28,0,0,0-13,0,9.94,9.94,0,0,0-3.82,3.82,16.74,16.74,0,0,0-1.83,5.42,38.26,38.26,0,0,0-.49,6.15v13.94Z" transform="translate(-300.17 -537.83)"/><path class="cls-3" d="M1846.37,1908.57v-10.63h32.55v-40.63h-32.55v-10.62h78.37v10.62h-35.86v40.63h35.86v10.63Z" transform="translate(-300.17 -537.83)"/><path class="cls-3" d="M1846.37,1826.55V1799a32.06,32.06,0,0,1,2.05-12.39,21,21,0,0,1,5.2-7.7,17.73,17.73,0,0,1,7.08-3.93,26.7,26.7,0,0,1,15.17,0,17.84,17.84,0,0,1,7.09,3.93,21.08,21.08,0,0,1,5.2,7.7,32.26,32.26,0,0,1,2,12.39v16.94h34.54v10.63Zm34.54-10.63v-14a38.24,38.24,0,0,0-.5-6.14,16.28,16.28,0,0,0-1.83-5.42,9.88,9.88,0,0,0-3.82-3.82,15.18,15.18,0,0,0-13,0,9.94,9.94,0,0,0-3.82,3.82,16.74,16.74,0,0,0-1.83,5.42,38.23,38.23,0,0,0-.49,6.14v14Z" transform="translate(-300.17 -537.83)"/><path class="cls-3" d="M1831.25,1606.48h8.5v19h22.33v-19h8.51v47.78h-8.51V1633.2h-22.33v21.06h-8.5Z" transform="translate(-300.17 -537.83)"/><path class="cls-3" d="M1891,1614.17h-14.65v-7.69h37.79v7.69h-14.64v40.09H1891Z" transform="translate(-300.17 -537.83)"/><path class="cls-3" d="M1920.2,1606.48h13l12.76,33.47,12.89-33.47h12.82v47.78h-8.09v-39.68h-.14l-14.51,39.68h-5.94l-14.51-39.68h-.14v39.68h-8.09Z" transform="translate(-300.17 -537.83)"/><path class="cls-3" d="M1982.48,1606.48H1991v40.09h20.31v7.69h-28.82Z" transform="translate(-300.17 -537.83)"/><path class="cls-18" d="M1615,1807.36a40.59,40.59,0,0,0,35,11.49c20.08-3,34.46-21.12,34.46-41.43V1752h88.67v81.3h25.26c21.53,0,40.32,16.16,41.92,37.63a40.86,40.86,0,0,1-40.6,43.79h-26.58v81.3H1525.85a11.49,11.49,0,0,1-11.48-11.49V1752H1603v26.59A40.6,40.6,0,0,0,1615,1807.36Z" transform="translate(-300.17 -537.83)"/><path class="cls-8" d="M1975.83,1845.32a40.6,40.6,0,0,0,28.73,69.34h27.33v69.9a11.48,11.48,0,0,1-11.45,11.5h-247.3v-81.31h26.57a40.86,40.86,0,0,0,40.6-43.8c-1.6-21.44-20.4-37.64-41.92-37.64h-25.25v-81.26h79.32v-25.39c0-20.35,14.37-38.39,34.48-41.45a40.82,40.82,0,0,1,46.92,40.23v26.61h98v81.35h-27.33A40.72,40.72,0,0,0,1975.83,1845.32Z" transform="translate(-300.17 -537.83)"/><path class="cls-24" d="M1525.85,1508.06h247.27v81.26h25.26c21.53,0,40.32,16.16,41.92,37.63a40.86,40.86,0,0,1-40.6,43.79h-26.58V1752h-88.67v25.39c0,20.31-14.38,38.38-34.46,41.43a40.84,40.84,0,0,1-47-40.23V1752h-88.66V1519.54A11.48,11.48,0,0,1,1525.85,1508.06Z" transform="translate(-300.17 -537.83)"/><path class="cls-23" d="M2057.89,1589.74h-26.67v-69.58a11.45,11.45,0,0,0-11.45-11.45H1773.12v81h25.19c21.48,0,40.22,16.12,41.81,37.53a40.76,40.76,0,0,1-40.49,43.67h-26.51V1752h79.13v-25.31c0-20.26,14.35-38.29,34.38-41.33a40.72,40.72,0,0,1,46.82,40.13V1752h97.77v-81h26.67a40.75,40.75,0,0,0,40.63-40.63h0A40.75,40.75,0,0,0,2057.89,1589.74Z" transform="translate(-300.17 -537.83)"/><path class="cls-3" d="M1631.13,1912.21a35.44,35.44,0,0,1-2,11.68,28.72,28.72,0,0,1-5.78,9.89,27.42,27.42,0,0,1-9.59,6.78,33.35,33.35,0,0,1-13.43,2.52q-12.12,0-19.83-5.62c-5.16-3.76-8.54-9.72-10.19-17.9l17-4a13.88,13.88,0,0,0,4.13,8.08,11.27,11.27,0,0,0,8,3q7.79,0,10.6-5.26t2.81-14.51v-68.55h18.19Z" transform="translate(-300.17 -537.83)"/><path class="cls-3" d="M1703.29,1860.25a16.67,16.67,0,0,0-7.72-6.14,27,27,0,0,0-10.18-1.95,25.91,25.91,0,0,0-6.13.72,16.86,16.86,0,0,0-5.34,2.31,12.1,12.1,0,0,0-3.83,4.12,11.86,11.86,0,0,0-1.43,6,9.4,9.4,0,0,0,3.6,7.94,34.94,34.94,0,0,0,9,4.75c3.56,1.35,7.45,2.66,11.69,3.9a48,48,0,0,1,11.69,5.19,29.13,29.13,0,0,1,9,8.81q3.6,5.47,3.6,14.58a32.07,32.07,0,0,1-3,14.36A29.13,29.13,0,0,1,1706,1935a35.28,35.28,0,0,1-11.91,6.06,49.64,49.64,0,0,1-14.28,2,53.5,53.5,0,0,1-18.33-3.17,35.19,35.19,0,0,1-15.16-10.67L1660,1916a23,23,0,0,0,8.74,7.87,24.56,24.56,0,0,0,11.47,2.81,23.92,23.92,0,0,0,6.35-.86,19.64,19.64,0,0,0,5.77-2.61,13.62,13.62,0,0,0,4.19-4.39,11.87,11.87,0,0,0,1.58-6.14q0-5.62-3.6-8.66a32.22,32.22,0,0,0-9-5.12c-3.56-1.4-7.46-2.71-11.69-4a48.87,48.87,0,0,1-11.69-5.12,28.24,28.24,0,0,1-9-8.67q-3.6-5.4-3.6-14.49a27.6,27.6,0,0,1,3.24-13.72,29.61,29.61,0,0,1,8.51-9.59,37,37,0,0,1,12.05-5.7,51.42,51.42,0,0,1,13.86-1.88,50.72,50.72,0,0,1,15.66,2.45,36.28,36.28,0,0,1,13.64,8.09Z" transform="translate(-300.17 -537.83)"/><path class="cls-3" d="M1863.32,1974.22v-27.57a32.28,32.28,0,0,1,2-12.39,21.14,21.14,0,0,1,5.21-7.7,17.71,17.71,0,0,1,7.08-3.92,26.47,26.47,0,0,1,15.17,0,17.78,17.78,0,0,1,7.08,3.92,21.14,21.14,0,0,1,5.21,7.7,32.3,32.3,0,0,1,2,12.39v16.94h34.54v10.63Zm34.54-10.63v-13.94a37.16,37.16,0,0,0-.5-6.15,16.5,16.5,0,0,0-1.82-5.42,9.94,9.94,0,0,0-3.82-3.82,15.28,15.28,0,0,0-13,0,9.88,9.88,0,0,0-3.82,3.82,16.28,16.28,0,0,0-1.83,5.42,38.26,38.26,0,0,0-.49,6.15v13.94Z" transform="translate(-300.17 -537.83)"/><path class="cls-3" d="M1863.32,1908.57v-10.63h32.55v-40.63h-32.55v-10.62h78.38v10.62h-35.87v40.63h35.87v10.63Z" transform="translate(-300.17 -537.83)"/><path class="cls-3" d="M1863.32,1826.55V1799a32.25,32.25,0,0,1,2-12.39,21,21,0,0,1,5.21-7.7,17.73,17.73,0,0,1,7.08-3.93,26.7,26.7,0,0,1,15.17,0,17.8,17.8,0,0,1,7.08,3.93,21,21,0,0,1,5.21,7.7,32.26,32.26,0,0,1,2,12.39v16.94h34.54v10.63Zm34.54-10.63v-14a37.13,37.13,0,0,0-.5-6.14,16.5,16.5,0,0,0-1.82-5.42,9.94,9.94,0,0,0-3.82-3.82,15.18,15.18,0,0,0-13,0,9.88,9.88,0,0,0-3.82,3.82,16.28,16.28,0,0,0-1.83,5.42,38.23,38.23,0,0,0-.49,6.14v14Z" transform="translate(-300.17 -537.83)"/><path class="cls-3" d="M1541.16,1599.69h17a19.89,19.89,0,0,1,7.64,1.26,12.94,12.94,0,0,1,4.73,3.21,10.82,10.82,0,0,1,2.42,4.36,16.15,16.15,0,0,1,0,9.34,10.82,10.82,0,0,1-2.42,4.36,12.81,12.81,0,0,1-4.73,3.21,19.89,19.89,0,0,1-7.64,1.26H1547.7V1648h-6.54Zm6.54,21.27h8.59a22.68,22.68,0,0,0,3.78-.31,10.12,10.12,0,0,0,3.34-1.12,6.19,6.19,0,0,0,2.36-2.35,9.49,9.49,0,0,0,0-8,6.19,6.19,0,0,0-2.36-2.35,10.12,10.12,0,0,0-3.34-1.12,22.68,22.68,0,0,0-3.78-.31h-8.59Z" transform="translate(-300.17 -537.83)"/><path class="cls-3" d="M1576.2,1615.64h7.09l9.57,25.23h.13l9.18-25.23h6.55l-15.34,39.27c-.55,1.41-1.11,2.69-1.7,3.85a11.79,11.79,0,0,1-2.1,3,8.66,8.66,0,0,1-3,1.9,11.48,11.48,0,0,1-4.24.69,23.33,23.33,0,0,1-2.75-.17,9.94,9.94,0,0,1-2.68-.72l.74-5.59a9.62,9.62,0,0,0,3.66.75,6.82,6.82,0,0,0,2.41-.37,4.8,4.8,0,0,0,1.69-1.1,6.39,6.39,0,0,0,1.19-1.67c.31-.63.63-1.36.95-2.18l2-5.11Z" transform="translate(-300.17 -537.83)"/><path class="cls-3" d="M1631.42,1621h-8.8v14.66c0,.91,0,1.8.07,2.69a7.35,7.35,0,0,0,.51,2.39,3.87,3.87,0,0,0,1.37,1.7,4.66,4.66,0,0,0,2.69.65,12.74,12.74,0,0,0,2.25-.21,6.25,6.25,0,0,0,2.11-.75v5.6a8.24,8.24,0,0,1-2.83.85,23.07,23.07,0,0,1-2.69.24,12.32,12.32,0,0,1-5.49-1,6.72,6.72,0,0,1-2.86-2.56,8.17,8.17,0,0,1-1.09-3.51c-.12-1.3-.17-2.6-.17-3.92V1621h-7.09v-5.32h7.09v-9.06h6.13v9.06h8.8Z" transform="translate(-300.17 -537.83)"/><path class="cls-3" d="M1639.32,1596.42h6.14v24.2h.13a9.11,9.11,0,0,1,4-4.19,13.3,13.3,0,0,1,6.62-1.6,14.21,14.21,0,0,1,4.46.71,10.15,10.15,0,0,1,3.75,2.22,10.69,10.69,0,0,1,2.56,3.85,14.85,14.85,0,0,1,1,5.55V1648h-6.13v-19.09a10.75,10.75,0,0,0-.62-3.85,7.05,7.05,0,0,0-1.63-2.59,6.12,6.12,0,0,0-2.36-1.43,8.48,8.48,0,0,0-2.75-.45,10,10,0,0,0-3.55.62,7.46,7.46,0,0,0-2.87,1.94,9.25,9.25,0,0,0-1.9,3.37,15.24,15.24,0,0,0-.68,4.84V1648h-6.14Z" transform="translate(-300.17 -537.83)"/><path class="cls-3" d="M1675.65,1631.8a16.37,16.37,0,0,1,1.34-6.61,17.24,17.24,0,0,1,31.69,0,16.37,16.37,0,0,1,1.33,6.61,16.77,16.77,0,0,1-5,12,17.43,17.43,0,0,1-24.4,0,16.88,16.88,0,0,1-5-12Zm6.55,0a13.21,13.21,0,0,0,.75,4.53,10.22,10.22,0,0,0,2.11,3.55,9.76,9.76,0,0,0,3.34,2.32,12,12,0,0,0,8.86,0,9.76,9.76,0,0,0,3.34-2.32,10.24,10.24,0,0,0,2.12-3.55,14.06,14.06,0,0,0,0-9.06,10.24,10.24,0,0,0-2.12-3.55,9.74,9.74,0,0,0-3.34-2.31,11.84,11.84,0,0,0-8.86,0,9.74,9.74,0,0,0-3.34,2.31,10.22,10.22,0,0,0-2.11,3.55A13.25,13.25,0,0,0,1682.2,1631.8Z" transform="translate(-300.17 -537.83)"/><path class="cls-3" d="M1717.72,1615.64h6.13v5h.14a9.06,9.06,0,0,1,4-4.19,13.28,13.28,0,0,1,6.61-1.6,14.27,14.27,0,0,1,4.47.71,10.15,10.15,0,0,1,3.75,2.22,10.67,10.67,0,0,1,2.55,3.85,14.65,14.65,0,0,1,1,5.55V1648h-6.14v-19.09a10.76,10.76,0,0,0-.61-3.85,7.07,7.07,0,0,0-1.64-2.59,6,6,0,0,0-2.35-1.43,8.54,8.54,0,0,0-2.76-.45,9.9,9.9,0,0,0-3.54.62,7.32,7.32,0,0,0-2.87,1.94,9.12,9.12,0,0,0-1.91,3.37,15.24,15.24,0,0,0-.68,4.84V1648h-6.13Z" transform="translate(-300.17 -537.83)"/><path class="cls-3" d="M1848.2,1606.48h8.5v19H1879v-19h8.51v47.78H1879V1633.2H1856.7v21.06h-8.5Z" transform="translate(-300.17 -537.83)"/><path class="cls-3" d="M1908,1614.17h-14.65v-7.69h37.79v7.69H1916.5v40.09H1908Z" transform="translate(-300.17 -537.83)"/><path class="cls-3" d="M1937.15,1606.48h13l12.75,33.47,12.89-33.47h12.83v47.78h-8.1v-39.68h-.14l-14.51,39.68h-5.93l-14.51-39.68h-.14v39.68h-8.1Z" transform="translate(-300.17 -537.83)"/><path class="cls-3" d="M1999.44,1606.48h8.5v40.09h20.32v7.69h-28.82Z" transform="translate(-300.17 -537.83)"/><path class="cls-25" d="M711.34,1006.3s-16.35-20.83,8-31c12.28-5.11,15.75-11.74,12.31-21S732,935,741.77,929.58s13.93-21.36,34.25-12c0,0,25.62,10,24.59,25.71s-.83,14.32,4.64,25-5.93,23.39-6.35,29.78,2.32,8.24,2.32,8.24Z" transform="translate(-300.17 -537.83)"/><path class="cls-18" d="M870.21,1147.45h0a24.12,24.12,0,0,1-33.08-7.92l-52-84.75A24.11,24.11,0,0,1,793,1021.7h0a24.13,24.13,0,0,1,33.09,7.91l52,84.76A24.12,24.12,0,0,1,870.21,1147.45Z" transform="translate(-300.17 -537.83)"/><path class="cls-26" d="M711.05,1177.36s-7,8-9.8,14.46,30.5,2.91,30.5,2.91l-3.63-31.21Z" transform="translate(-300.17 -537.83)"/><path class="cls-2" d="M933.06,1314.09h0a40.69,40.69,0,0,1-56.61,9.32l-126.63-90.82A40.69,40.69,0,0,1,740.5,1176h0a40.68,40.68,0,0,1,56.6-9.32l126.64,90.82A40.69,40.69,0,0,1,933.06,1314.09Z" transform="translate(-300.17 -537.83)"/><path class="cls-26" d="M896.58,1325.45h0a40.69,40.69,0,0,1-56.61,9.32L713.34,1244a40.68,40.68,0,0,1-9.32-56.6h0a40.69,40.69,0,0,1,56.61-9.33l126.63,90.83A40.68,40.68,0,0,1,896.58,1325.45Z" transform="translate(-300.17 -537.83)"/><path class="cls-18" d="M745.48,1008.31l-42.1,19.83s9.36,107.61,10.33,119.46-2.66,29.76-2.66,29.76H811.93s-1.21-58.06,5.56-74.27c4.59-11,7.75-17.66,5.08-30.24s-11.61-31.45-8.46-53.23l-25.89-10.4Z" transform="translate(-300.17 -537.83)"/><polygon class="cls-27" points="628.97 975 621.22 947.67 663.36 941.58 666.77 969.14 628.97 975"/><path class="cls-27" d="M788.23,960.28v49a13.71,13.71,0,0,1-.12,1.55c-.5,4-3.08,14.26-16.39,14.12-12.15-.14-20.64-9.07-24.25-13.76a27,27,0,0,1-2-2.82l6.12-48Z" transform="translate(-300.17 -537.83)"/><polygon class="cls-27" points="486.55 970.24 524.1 977.48 532.06 953.67 490.37 947.45 486.55 970.24"/><polygon class="cls-28" points="488.05 471.39 466.29 443.61 488.05 439.42 488.05 471.39"/><path class="cls-27" d="M789.23,990c-8.67,2.83-20.68-.61-29.18-9.54s-27.6-42.35-2.11-57.92,40.59,10.21,41.25,14.19c0,0,.25,14.06.41,24,.06,2.52.09,4.76.12,6.45,0,.27,0,.52,0,.76C799.86,975.63,797.89,987.17,789.23,990Z" transform="translate(-300.17 -537.83)"/><path class="cls-18" d="M661.37,1160.81h0A24.11,24.11,0,0,1,650,1128.74L692.91,1039A24.12,24.12,0,0,1,725,1027.67h0a24.14,24.14,0,0,1,11.34,32.08l-42.87,89.73A24.12,24.12,0,0,1,661.37,1160.81Z" transform="translate(-300.17 -537.83)"/><path class="cls-2" d="M889.23,1258.7a38.89,38.89,0,0,0-23.47,49.74l50.87,183,62.68-9.74L941.19,1293h0a38.82,38.82,0,0,0-51.94-34.34Z" transform="translate(-300.17 -537.83)"/><polygon class="cls-25" points="480.02 998.95 497.8 1002.08 500.96 990.81 508.62 1003.99 550.54 1011.38 524.1 977.48 486.55 970.24 480.02 998.95"/><path class="cls-26" d="M872.33,1261.22a38.89,38.89,0,0,0-45.05,31.55l-48.14,195.28,60,11.59,61.23-182.82h0a38.84,38.84,0,0,0-28.06-55.59Z" transform="translate(-300.17 -537.83)"/><line class="cls-29" x1="512.25" y1="982.86" x2="529.02" y2="985.77"/><path class="cls-25" d="M776,917.6s23.24.75,26.22,23l-11.8.57s.19-7.64-5.75-11c0,0,4.18,5.83,2.75,11.54l-13.66,1.36s-.6-8.3.13-11.57c0,0-3.3,7.58-3.41,12.1l-9.62,2.64s.07,7.74-3.42,10.52S749.33,972,749.33,972s-10-27.38-5.57-36.11S756.06,913.18,776,917.6Z" transform="translate(-300.17 -537.83)"/><line class="cls-29" x1="515.28" y1="989.36" x2="532.06" y2="992.26"/><polygon class="cls-25" points="632.17 1003.86 649.99 1001 649.28 989.31 660.83 999.26 702.87 992.5 666.77 969.14 628.97 975 632.17 1003.86"/><line class="cls-29" x1="657.34" y1="978.11" x2="674.14" y2="975.35"/><line class="cls-29" x1="662.34" y1="983.25" x2="679.14" y2="980.49"/><path class="cls-30" d="M792.29,1200.74s66.66,47,79.53,56,31.91,19.09,32.65,40.62-21,69.4-21,69.4" transform="translate(-300.17 -537.83)"/><path class="cls-27" d="M756,963.32c1.5,4.57,1.47,7.51-2.12,8.69a8.25,8.25,0,0,1-10.07-5.33c-1.51-4.57.18-9.24,3.77-10.42S754.45,958.74,756,963.32Z" transform="translate(-300.17 -537.83)"/><path class="cls-31" d="M746.85,960.87s5.76-.28,6.26,4.59a5.9,5.9,0,0,0-4.77-1.22" transform="translate(-300.17 -537.83)"/><path class="cls-25" d="M777.23,956.71c0,1.86,1,3.37,2.16,3.38s2.19-1.5,2.2-3.36-1-3.37-2.16-3.38S777.24,954.85,777.23,956.71Z" transform="translate(-300.17 -537.83)"/><path class="cls-25" d="M793.14,955.36c0,1.86,1,3.37,2.16,3.38s2.19-1.5,2.2-3.36-1-3.37-2.16-3.38S793.15,953.5,793.14,955.36Z" transform="translate(-300.17 -537.83)"/><path class="cls-3" d="M783.12,978.31a4.2,4.2,0,0,0,5.35-2.6l-8-2.75A4.2,4.2,0,0,0,783.12,978.31Z" transform="translate(-300.17 -537.83)"/><path class="cls-32" d="M773,952.94s3.76-4.61,8.1-2.91" transform="translate(-300.17 -537.83)"/><path class="cls-32" d="M793.5,949.27s2.72-.49,5.59,2.47" transform="translate(-300.17 -537.83)"/><path class="cls-32" d="M787.52,955.59s.15,9.22,5.56,10.38a11.37,11.37,0,0,1-3.89,2.19" transform="translate(-300.17 -537.83)"/><path class="cls-33" d="M780.18,966.85c-.46,1.77-3.49,2.53-6.77,1.69s-5.58-3-5.12-4.73,3.48-2.53,6.76-1.69S780.63,965.08,780.18,966.85Z" transform="translate(-300.17 -537.83)"/><path class="cls-33" d="M799.72,967.11c-2,.07-3.56-.55-4-1.75-.52-1.57,1.14-3.53,3.83-4.7C799.66,963.18,799.69,965.42,799.72,967.11Z" transform="translate(-300.17 -537.83)"/><path class="cls-27" d="M834.94,1133.33c-5.77-13.3-.89-28.35,10.85-33.44l107-30.43a78.13,78.13,0,0,0,10-6.21c6.71-5.12,26.58-16.88,28.25-14s-10.31,13.69-8.61,14.32,12.33-5.25,16.67-8.12,12.64-10.52,15.5-9.48,2.45,5.51,2.45,5.51,2.82-3.31,4.54-1.16-1.41,8.37-1.41,8.37,1.38-2,2.69.85-6.52,10.49-6.52,10.49a2,2,0,0,1,2.72,1.43c.7,2.3-10.71,11.21-20.64,14.79-8.86,3.19-30.77,8.45-35.37,9.54l-96.3,52.46C855,1153.35,840.72,1146.63,834.94,1133.33Z" transform="translate(-300.17 -537.83)"/><line class="cls-34" x1="411.58" y1="573.35" x2="425.86" y2="543.47"/><polygon class="cls-35" points="474.36 696.28 436.64 662.91 548.22 662.91 589.73 696.28 474.36 696.28"/><path class="cls-36" d="M754.87,973.54a3.54,3.54,0,1,1-3.52-3.57A3.54,3.54,0,0,1,754.87,973.54Z" transform="translate(-300.17 -537.83)"/><polygon class="cls-37" points="589.73 696.28 474.36 696.28 504.47 609.89 619.84 609.89 589.73 696.28"/><polygon class="cls-35" points="475.62 692.09 437.9 658.72 549.48 658.72 590.99 692.09 475.62 692.09"/><polygon class="cls-37" points="587.55 694.37 472.19 694.37 502.29 607.98 617.66 607.98 587.55 694.37"/><polygon class="cls-35" points="617.66 607.98 619.84 609.89 504.47 609.89 474.36 696.28 472.19 694.37 502.29 607.98 617.66 607.98"/><polygon class="cls-16" points="437.9 658.72 436.64 662.91 474.36 696.28 475.83 692.09 437.9 658.72"/><path class="cls-35" d="M864.92,1191.89c0,3.13-5.72,5.67-12.79,5.67s-12.79-2.54-12.79-5.67,5.73-5.66,12.79-5.66S864.92,1188.77,864.92,1191.89Z" transform="translate(-300.17 -537.83)"/><path class="cls-27" d="M649.94,1126.25c6.81-12.81,21.62-18.37,32.92-12.36l90.5,64.75a78.87,78.87,0,0,0,11.07,3.95c8.19,2.06,29.77,10.27,28.56,13.37s-17.13.47-16.57,2.18,11.79,6.38,16.74,8,16.1,3.34,17.07,6.22-2.77,5.35-2.77,5.35,4.34.14,3.73,2.83-7.43,4.12-7.43,4.12,2.42-.17,1,2.63-12.27,1.43-12.27,1.43a2,2,0,0,1,.58,3c-1.36,2-15.43-1.39-24.42-6.93-8-4.94-25.79-18.79-29.51-21.71l-101-42.64C646.82,1154.44,643.14,1139.05,649.94,1126.25Z" transform="translate(-300.17 -537.83)"/><path class="cls-34" d="M817.15,1104s7.58-16,6.35-24.24-8-30.66-8.87-37.54" transform="translate(-300.17 -537.83)"/><polygon class="cls-38" points="1044.55 871.62 1096.57 870.73 1093.85 816.11 1092.55 789.98 1092.47 788.68 1051.77 771.57 1050.44 790.03 1049.46 803.49 1044.55 871.62"/><path class="cls-39" d="M1446.46,1578.53l21.87,181.09a41.6,41.6,0,0,1-49.17,47.13c-22.61-4.4-31.26-21.86-35.32-47.82-7.8-49.84-35-199.38-35-199.38Z" transform="translate(-300.17 -537.83)"/><polygon class="cls-39" points="1004.44 1031.59 1084.8 1036.98 1084.4 1126.01 1074.86 1140.12 1066.02 1225.95 984.67 1219.44 1004.44 1031.59"/><path class="cls-38" d="M1370.05,1386.6c-19.08.42-28.37-10.06-30.37-14.67l8.29-2.24,46.76-1.49,5.67,1.82C1398,1374.47,1389.56,1386.17,1370.05,1386.6Z" transform="translate(-300.17 -537.83)"/><path class="cls-3" d="M1302.31,1505.36l.82,78.06h143.92l-.67-196.8L1396,1368.4c-.57,1-1.18,2.11-1.93,3.24l-.19.24c-2.73,3.48-8,6.78-22.6,7.11-12.19.28-18.17-1.41-21.56-3.63l0,0c-1.84-1.23-3.3-3.64-4.14-5l-47.23,11.45,3.21,99.35Z" transform="translate(-300.17 -537.83)"/><path class="cls-18" d="M1339.68,1371.93s4.08,72.83,3.49,114.92-3.49,148.49-3.49,148.49-26.66.56-51.19-4.41c0,0-.37-48.19,6.39-81.43s3.38-167.69,3.38-167.69Z" transform="translate(-300.17 -537.83)"/><path class="cls-18" d="M1492.16,1545.56l-.31.12a26.26,26.26,0,0,1-33.93-14.82l-42.84-109.23a26.25,26.25,0,0,1,14.81-33.93l.31-.12a26.25,26.25,0,0,1,33.93,14.82L1507,1511.62A26.27,26.27,0,0,1,1492.16,1545.56Z" transform="translate(-300.17 -537.83)"/><path class="cls-39" d="M1483.57,1943.44l-75.59-.06-22.79-175.9a41.71,41.71,0,1,1,83-8.73,40.19,40.19,0,0,1,.17,5.9l13.16,154.4,2.08,24.39Z" transform="translate(-300.17 -537.83)"/><path class="cls-39" d="M1366.48,1760.61l-19.41,182.83h-74.26l11.9-183.83a50,50,0,0,1,.62-6.11c2-23,20.28-40.1,43.24-38.1A41.76,41.76,0,0,1,1366.48,1760.61Z" transform="translate(-300.17 -537.83)"/><path class="cls-25" d="M1349.48,1294.86s-4-18.16,4.06-15.23S1349.48,1294.86,1349.48,1294.86Z" transform="translate(-300.17 -537.83)"/><path class="cls-18" d="M1400.4,1370s-19.68,102-20.34,152.73l-.67,50.71,2.26,61.88s54.83,6.79,74-1c0,0,1.34-73.44-3.76-99.45s-5.51-148.24-5.51-148.24Z" transform="translate(-300.17 -537.83)"/><polygon class="cls-40" points="1048.02 823.39 1077.27 802.07 1049.46 803.49 1048.02 823.39"/><path class="cls-41" d="M1390.29,1620.36s39.91,6.61,58.5,0" transform="translate(-300.17 -537.83)"/><path class="cls-38" d="M1352.24,1281.55s-4.43,16.91-7.58,28.91l-2.59,9.92c-2.06,7.83-2.9,20,5.21,25s21.16,4.49,32-2.46,40.43-43.48,18.39-65.59S1353.91,1277.66,1352.24,1281.55Z" transform="translate(-300.17 -537.83)"/><path class="cls-41" d="M1330.19,1392s4,63.67,5.36,91.84-5.36,127.34-5.36,127.34" transform="translate(-300.17 -537.83)"/><path class="cls-25" d="M1393.4,1347.64s-4.74-12-3.33-17.81-4.3-13.63-1.73-22.56,3.65-12.69-1.14-13-39.32,1.7-37.63-14.23,43.55-24.76,55.08,4.58c0,0,10.64,1.23,3.77,23.1S1396.23,1332.62,1393.4,1347.64Z" transform="translate(-300.17 -537.83)"/><path class="cls-41" d="M1408.81,1380s-7.49,62.36-12.07,93.16-5.37,106.72-6.45,134.85" transform="translate(-300.17 -537.83)"/><path class="cls-38" d="M1386.84,1324.86c-4.32,4-6,7.15-2.88,10.54a10.07,10.07,0,0,0,13.89.27c4.32-4,5.27-10,2.14-13.35S1391.15,1320.88,1386.84,1324.86Z" transform="translate(-300.17 -537.83)"/><path class="cls-25" d="M1369.9,1309.69c-.48,1.81-1.82,3-3,2.73s-1.74-2-1.26-3.85,1.81-3,3-2.73S1370.37,1307.87,1369.9,1309.69Z" transform="translate(-300.17 -537.83)"/><path class="cls-25" d="M1347.91,1303.93c-.47,1.82.09,3.54,1.27,3.85s2.52-.92,3-2.74-.09-3.54-1.27-3.84S1348.39,1302.11,1347.91,1303.93Z" transform="translate(-300.17 -537.83)"/><path class="cls-40" d="M1363.37,1320.8c.12,1.82,3.15,3.09,6.76,2.85s6.44-1.91,6.31-3.73-3.14-3.09-6.75-2.85S1363.25,1319,1363.37,1320.8Z" transform="translate(-300.17 -537.83)"/><path class="cls-40" d="M1344.66,1310.46l-1.68,6.45c2.63,1,5,.86,5.8-.46C1349.62,1314.88,1347.79,1312.21,1344.66,1310.46Z" transform="translate(-300.17 -537.83)"/><path class="cls-42" d="M1394.51,1331.15a15.23,15.23,0,0,0-5.41-1.41c3.94-4.26,7.65-2.67,7.65-2.67" transform="translate(-300.17 -537.83)"/><path class="cls-43" d="M1360.53,1308.58l-7.06,10.55a2.81,2.81,0,0,0,.26,3.44l1.34,1.47,1.37,1.51" transform="translate(-300.17 -537.83)"/><path class="cls-43" d="M1373.54,1306.69s-2.89-4.87-7.76-4.82" transform="translate(-300.17 -537.83)"/><path class="cls-43" d="M1347.42,1297.77a7,7,0,0,1,7.63,1" transform="translate(-300.17 -537.83)"/><polygon class="cls-38" points="1036.18 1434.18 1038.17 1405.61 982.53 1405.61 980.36 1434.18 1036.18 1434.18"/><rect class="cls-18" x="1261.68" y="1378.9" width="52.69" height="169.69" rx="26.18" transform="translate(132.51 -826.21) rotate(15.33)"/><polygon class="cls-40" points="981.55 1418.56 1038.17 1405.61 982.53 1405.61 981.55 1418.56"/><polygon class="cls-38" points="1118.77 1434.18 1116.63 1405.57 1173.62 1405.61 1174.59 1434.18 1118.77 1434.18"/><polygon class="cls-40" points="1117.82 1421.53 1173.62 1405.61 1116.63 1405.57 1117.82 1421.53"/><path class="cls-25" d="M1253.11,1996h82.16l.14-3.34,1-22.14h-55.91c-6.92,0-13.32,4.06-18.22,8.3a27.92,27.92,0,0,0-8.47,13.84A19.84,19.84,0,0,0,1253.11,1996Z" transform="translate(-300.17 -537.83)"/><path class="cls-44" d="M1253.11,1996h82.16l.14-3.34h-81.59A19.84,19.84,0,0,0,1253.11,1996Z" transform="translate(-300.17 -537.83)"/><path class="cls-45" d="M1278.83,1975.11s7.1-12.46,11.89-7.53-11.89,7.53-11.89,7.53" transform="translate(-300.17 -537.83)"/><path class="cls-45" d="M1281.33,1977.6l-2.5-2.49s-7.1-12.46-11.88-7.53,11.88,7.53,11.88,7.53" transform="translate(-300.17 -537.83)"/><line class="cls-45" x1="976.75" y1="1439.77" x2="978.66" y2="1437.29"/><path class="cls-25" d="M1501.75,1996h-82.16l-.14-3.34-1-22.14h55.91c6.92,0,13.32,4.06,18.22,8.3a27.92,27.92,0,0,1,8.47,13.84A19.84,19.84,0,0,1,1501.75,1996Z" transform="translate(-300.17 -537.83)"/><path class="cls-44" d="M1501.75,1996h-82.16l-.14-3.34H1501A19.84,19.84,0,0,1,1501.75,1996Z" transform="translate(-300.17 -537.83)"/><path class="cls-45" d="M1476,1975.87s-7.1-12.47-11.88-7.54,11.88,7.54,11.88,7.54" transform="translate(-300.17 -537.83)"/><path class="cls-45" d="M1473.53,1978.35l2.5-2.48s7.1-12.47,11.88-7.54-11.88,7.54-11.88,7.54" transform="translate(-300.17 -537.83)"/><line class="cls-45" x1="1177.77" y1="1440.52" x2="1175.86" y2="1438.04"/><polyline class="cls-46" points="1073.01 1158.05 1066.47 1136.2 1060.2 1136.2 1050.21 1109.15"/><line class="cls-46" x1="1175.86" y1="1384.96" x2="1111.53" y2="1384.96"/><line class="cls-46" x1="1044.69" y1="1384.96" x2="980.36" y2="1384.96"/><path class="cls-3" d="M1361.94,1329.83l-10.31,1.84s1.2,5.3,6.35,4.68S1361.94,1329.83,1361.94,1329.83Z" transform="translate(-300.17 -537.83)"/><path class="cls-41" d="M1291.87,1616.66s19.16,6.39,38.32,1.31" transform="translate(-300.17 -537.83)"/><path class="cls-3" d="M1330.19,1507.16a3.57,3.57,0,1,1-3.57-3.56A3.57,3.57,0,0,1,1330.19,1507.16Z" transform="translate(-300.17 -537.83)"/><circle class="cls-3" cx="1026.45" cy="1002.12" r="3.57"/><path class="cls-3" d="M1325.68,1596.13a3.57,3.57,0,1,1-3.57-3.57A3.57,3.57,0,0,1,1325.68,1596.13Z" transform="translate(-300.17 -537.83)"/><polygon class="cls-37" points="927.88 1038.81 1050.64 1038.81 1018.6 946.88 895.84 946.88 927.88 1038.81"/><polygon class="cls-35" points="1049.3 1034.34 1089.45 998.84 970.71 998.84 926.54 1034.34 1049.3 1034.34"/><polygon class="cls-37" points="930.2 1036.77 1052.96 1036.77 1020.92 944.84 898.16 944.84 930.2 1036.77"/><polygon class="cls-35" points="898.16 944.84 895.84 946.88 1018.6 946.88 1050.64 1038.81 1052.96 1036.77 1020.92 944.84 898.16 944.84"/><polygon class="cls-16" points="1089.45 998.84 1090.79 1003.3 1050.64 1038.81 1049.09 1034.34 1089.45 998.84"/><ellipse class="cls-35" cx="968.06" cy="993.89" rx="13.61" ry="6.02"/><path class="cls-38" d="M1326.33,1589.44c.81,2.17,14.82,2,24.5-1.22,8.22-2.77,26.47-11.18,31.83-13.7l-10.13-32.92c-3.43.59-10.55,1.11-13.78,1.88-8.59,2-25,9-24.57,12.26s15.45.17,14.55,1.67-11.94,7.43-16.93,7.86-15.91-.35-17.45,2.15,1.46,5.65,1.46,5.65-4.13-.79-4.15,1.88,6.1,5.5,6.1,5.5-2.22-.7-1.52,2.24,11.27,4,11.27,4A1.87,1.87,0,0,0,1326.33,1589.44Z" transform="translate(-300.17 -537.83)"/><path class="cls-18" d="M1370.52,1535.09l103.54-41.6c12.45-4.58,26.88,3.19,32.11,17.29s-.75,29.41-13.2,34l-107.87,37.67Z" transform="translate(-300.17 -537.83)"/><polyline class="cls-47" points="1081.36 992.84 1147.55 967.05 1127.83 916.76"/><line class="cls-47" x1="1152.28" y1="1021.13" x2="1094.37" y2="1041.35"/><rect class="cls-2" x="855.22" y="382.64" width="194.36" height="165.05" rx="10.95"/><rect class="cls-39" x="865.62" y="382.64" width="194.36" height="165.05" rx="10.95"/><path class="cls-3" d="M1240.08,949.63h-6.46a5.49,5.49,0,0,0-3.51,1.08,7.81,7.81,0,0,0-2.22,2.87,14,14,0,0,0-1.22,4,28.22,28.22,0,0,0-.36,4.52v21.66a21.42,21.42,0,0,1-1.22,8.46,19.51,19.51,0,0,1-3.37,5.74,15.37,15.37,0,0,1-4.09,3.44,13.39,13.39,0,0,1-3.37,1.44v.43a11.14,11.14,0,0,1,3.37,1.14,14,14,0,0,1,4.09,3.16,17.19,17.19,0,0,1,3.37,5.81,24.51,24.51,0,0,1,1.22,9.11V1044a27.21,27.21,0,0,0,.36,4.37,14,14,0,0,0,1.22,4,7.9,7.9,0,0,0,2.22,2.87,5.49,5.49,0,0,0,3.51,1.08h6.46v10.32h-10.76a12.19,12.19,0,0,1-5.38-1.29,14.14,14.14,0,0,1-4.8-3.94,21.11,21.11,0,0,1-3.52-6.82,32.15,32.15,0,0,1-1.36-9.89v-19.22q-.29-7.89-3.73-12.34t-8.32-4.44V997.54q4.88,0,8.32-4.45t3.73-12.33V958.09a22.5,22.5,0,0,1,1.36-8.1,18.65,18.65,0,0,1,3.52-5.88,14.89,14.89,0,0,1,4.8-3.59,12.81,12.81,0,0,1,5.38-1.22h10.76Z" transform="translate(-300.17 -537.83)"/><path class="cls-3" d="M1288.27,1056.35h6.45a5.5,5.5,0,0,0,3.52-1.08,7.9,7.9,0,0,0,2.22-2.87,14.32,14.32,0,0,0,1.22-4,28.1,28.1,0,0,0,.36-4.51v-21.66a21.24,21.24,0,0,1,1.22-8.46,19.51,19.51,0,0,1,3.37-5.74,15.37,15.37,0,0,1,4.09-3.44,13.77,13.77,0,0,1,3.37-1.44v-.43a10.94,10.94,0,0,1-3.37-1.15,13.94,13.94,0,0,1-4.09-3.15,17.29,17.29,0,0,1-3.37-5.81,24.31,24.31,0,0,1-1.22-9.11V962a27.33,27.33,0,0,0-.36-4.38,14.36,14.36,0,0,0-1.22-4,7.81,7.81,0,0,0-2.22-2.87,5.5,5.5,0,0,0-3.52-1.08h-6.45V939.3H1299a12.13,12.13,0,0,1,5.38,1.3,14.23,14.23,0,0,1,4.8,3.94,21.35,21.35,0,0,1,3.52,6.81,32.26,32.26,0,0,1,1.36,9.9v19.22q0,7.89,3.59,12.34t8.46,4.44v11.19q-4.89,0-8.46,4.45t-3.59,12.33v22.66a22.56,22.56,0,0,1-1.36,8.11,18.84,18.84,0,0,1-3.52,5.88,14.82,14.82,0,0,1-4.8,3.58,12.88,12.88,0,0,1-5.38,1.22h-10.76Z" transform="translate(-300.17 -537.83)"/><rect class="cls-19" x="1394.64" y="682.48" width="291.22" height="200.55" rx="14.77"/><rect class="cls-18" x="1410.21" y="682.48" width="291.22" height="200.55" rx="14.77"/><path class="cls-3" d="M1726,1338.43v-14.6l84.3-45.63v22.31L1754,1331.13l56.31,30.62v22.3Z" transform="translate(-300.17 -537.83)"/><path class="cls-3" d="M1835.91,1402.3l-13.82-6.08,52-157.36,13.82,6.49Z" transform="translate(-300.17 -537.83)"/><path class="cls-3" d="M1986,1323.83v14.6l-84.3,45.62v-22.3l56.31-30.62-56.31-30.62V1278.2Z" transform="translate(-300.17 -537.83)"/><path class="cls-1" d="M1910.53,610.24v-7.75l44.7-24.19v11.83l-29.86,16.24,29.86,16.23v11.83Z" transform="translate(-300.17 -537.83)"/><path class="cls-1" d="M1968.83,644.11l-7.33-3.23,27.57-83.44,7.33,3.44Z" transform="translate(-300.17 -537.83)"/><path class="cls-1" d="M2048.44,602.49v7.75l-44.71,24.19V622.6l29.86-16.23-29.86-16.24V578.3Z" transform="translate(-300.17 -537.83)"/><path class="cls-3" d="M511.45,1072.35a29.26,29.26,0,0,0-8.89-4.22,6.82,6.82,0,0,1-13.54-.68,29.2,29.2,0,0,0-9.27,3.28,6.83,6.83,0,0,1-10.07,9.09,29.29,29.29,0,0,0-4.21,8.88,6.83,6.83,0,0,1-.7,13.55,29.63,29.63,0,0,0,3.29,9.27,6.83,6.83,0,0,1,9.1,10.08,29.26,29.26,0,0,0,8.88,4.2,6.83,6.83,0,0,1,13.55.69,29.17,29.17,0,0,0,9.26-3.29,6.83,6.83,0,0,1,10.07-9.09,29.29,29.29,0,0,0,4.21-8.88,6.83,6.83,0,0,1,.7-13.55,29.39,29.39,0,0,0-3.28-9.26,6.83,6.83,0,0,1-9.1-10.07Zm-6.38,14.9a14.5,14.5,0,1,1-20.5-1.06A14.5,14.5,0,0,1,505.07,1087.25Z" transform="translate(-300.17 -537.83)"/><path class="cls-3" d="M481.4,1163.05a16,16,0,1,1-7.25-21.51A16,16,0,0,1,481.4,1163.05Zm17.92.51a32.7,32.7,0,0,0,.73-10.86,7.56,7.56,0,0,1-4.81-14.22,32.7,32.7,0,0,0-7.14-8.19,7.56,7.56,0,0,1-13.46-6.67,32.33,32.33,0,0,0-10.84-.71,7.55,7.55,0,0,1-14.22,4.79,32.63,32.63,0,0,0-8.2,7.15,7.55,7.55,0,0,1-6.67,13.45,32.39,32.39,0,0,0-.71,10.85,7.55,7.55,0,0,1,4.8,14.22,32.54,32.54,0,0,0,7.15,8.19,7.55,7.55,0,0,1,13.45,6.66,32.38,32.38,0,0,0,10.85.72,7.55,7.55,0,0,1,14.22-4.79,32.7,32.7,0,0,0,8.19-7.14,7.55,7.55,0,0,1,6.66-13.45Z" transform="translate(-300.17 -537.83)"/></svg>